{
	"asset":{
		"generator":"Khronos glTF Blender I/O v3.5.30",
		"version":"2.0"
	},
	"extensionsUsed":[
		"KHR_materials_specular",
		"KHR_materials_ior"
	],
	"scene":0,
	"scenes":[
		{
			"name":"Scene",
			"nodes":[
				1,
				3
			]
		}
	],
	"nodes":[
		{
			"name":"Empty",
			"rotation":[
				0,
				0.2613467574119568,
				0,
				0.9652450084686279
			]
		},
		{
			"children":[
				0
			],
			"mesh":0,
			"name":"Plane"
		},
		{
			"name":"Empty.001",
			"rotation":[
				0,
				0.5461017489433289,
				0,
				0.8377189040184021
			]
		},
		{
			"children":[
				2
			],
			"mesh":1,
			"name":"Plane.001",
			"rotation":[
				0,
				0.22665131092071533,
				0,
				0.9739760756492615
			],
			"scale":[
				1.1925581693649292,
				1.1925578117370605,
				1.1925581693649292
			],
			"translation":[
				0,
				-0.30000001192092896,
				0
			]
		}
	],
	"animations":[
		{
			"channels":[
				{
					"sampler":0,
					"target":{
						"node":1,
						"path":"rotation"
					}
				}
			],
			"name":"PlaneAction",
			"samplers":[
				{
					"input":8,
					"interpolation":"LINEAR",
					"output":9
				}
			]
		},
		{
			"channels":[
				{
					"sampler":0,
					"target":{
						"node":3,
						"path":"rotation"
					}
				}
			],
			"name":"Plane.001Action",
			"samplers":[
				{
					"input":8,
					"interpolation":"LINEAR",
					"output":10
				}
			]
		}
	],
	"materials":[
		{
			"alphaMode":"BLEND",
			"doubleSided":true,
			"extensions":{
				"KHR_materials_specular":{
					"specularColorTexture":{
						"index":0
					}
				},
				"KHR_materials_ior":{
					"ior":1.4500000476837158
				}
			},
			"name":"Material.020",
			"pbrMetallicRoughness":{
				"baseColorTexture":{
					"index":1
				},
				"metallicFactor":0.5324074029922485,
				"roughnessFactor":0.6157407164573669
			}
		},
		{
			"alphaMode":"BLEND",
			"doubleSided":true,
			"extensions":{
				"KHR_materials_specular":{
					"specularColorTexture":{
						"index":2
					}
				},
				"KHR_materials_ior":{
					"ior":1.4500000476837158
				}
			},
			"name":"Material.001",
			"pbrMetallicRoughness":{
				"baseColorTexture":{
					"index":3
				},
				"metallicFactor":0.5324074029922485,
				"roughnessFactor":0.6157407164573669
			}
		}
	],
	"meshes":[
		{
			"name":"Plane",
			"primitives":[
				{
					"attributes":{
						"POSITION":0,
						"TEXCOORD_0":1,
						"NORMAL":2
					},
					"indices":3,
					"material":0
				}
			]
		},
		{
			"name":"Plane.001",
			"primitives":[
				{
					"attributes":{
						"POSITION":4,
						"TEXCOORD_0":5,
						"NORMAL":6
					},
					"indices":7,
					"material":1
				}
			]
		}
	],
	"textures":[
		{
			"sampler":0,
			"source":0
		},
		{
			"sampler":0,
			"source":1
		},
		{
			"sampler":0,
			"source":0
		},
		{
			"sampler":0,
			"source":1
		}
	],
	"images":[
		{
			"bufferView":4,
			"mimeType":"image/png",
			"name":"Image"
		},
		{
			"bufferView":5,
			"mimeType":"image/png",
			"name":"cloud10"
		}
	],
	"accessors":[
		{
			"bufferView":0,
			"componentType":5126,
			"count":48,
			"max":[
				3.1219029426574707,
				0.00238968338817358,
				3.113607883453369
			],
			"min":[
				-3.104544162750244,
				0,
				-3.1294281482696533
			],
			"type":"VEC3"
		},
		{
			"bufferView":1,
			"componentType":5126,
			"count":48,
			"type":"VEC2"
		},
		{
			"bufferView":2,
			"componentType":5126,
			"count":48,
			"type":"VEC3"
		},
		{
			"bufferView":3,
			"componentType":5123,
			"count":72,
			"type":"SCALAR"
		},
		{
			"bufferView":6,
			"componentType":5126,
			"count":52,
			"max":[
				3.078287124633789,
				0.002389648463577032,
				3.162264585494995
			],
			"min":[
				-3.1584081649780273,
				0,
				-3.1119537353515625
			],
			"type":"VEC3"
		},
		{
			"bufferView":7,
			"componentType":5126,
			"count":52,
			"type":"VEC2"
		},
		{
			"bufferView":8,
			"componentType":5126,
			"count":52,
			"type":"VEC3"
		},
		{
			"bufferView":9,
			"componentType":5123,
			"count":78,
			"type":"SCALAR"
		},
		{
			"bufferView":10,
			"componentType":5126,
			"count":751,
			"max":[
				31.25
			],
			"min":[
				0
			],
			"type":"SCALAR"
		},
		{
			"bufferView":11,
			"componentType":5126,
			"count":751,
			"type":"VEC4"
		},
		{
			"bufferView":12,
			"componentType":5126,
			"count":751,
			"type":"VEC4"
		}
	],
	"bufferViews":[
		{
			"buffer":0,
			"byteLength":576,
			"byteOffset":0,
			"target":34962
		},
		{
			"buffer":0,
			"byteLength":384,
			"byteOffset":576,
			"target":34962
		},
		{
			"buffer":0,
			"byteLength":576,
			"byteOffset":960,
			"target":34962
		},
		{
			"buffer":0,
			"byteLength":144,
			"byteOffset":1536,
			"target":34963
		},
		{
			"buffer":0,
			"byteLength":4460,
			"byteOffset":1680
		},
		{
			"buffer":0,
			"byteLength":58580,
			"byteOffset":6140
		},
		{
			"buffer":0,
			"byteLength":624,
			"byteOffset":64720,
			"target":34962
		},
		{
			"buffer":0,
			"byteLength":416,
			"byteOffset":65344,
			"target":34962
		},
		{
			"buffer":0,
			"byteLength":624,
			"byteOffset":65760,
			"target":34962
		},
		{
			"buffer":0,
			"byteLength":156,
			"byteOffset":66384,
			"target":34963
		},
		{
			"buffer":0,
			"byteLength":3004,
			"byteOffset":66540
		},
		{
			"buffer":0,
			"byteLength":12016,
			"byteOffset":69544
		},
		{
			"buffer":0,
			"byteLength":12016,
			"byteOffset":81560
		}
	],
	"samplers":[
		{
			"magFilter":9729,
			"minFilter":9987,
			"wrapS":33071,
			"wrapT":33071
		}
	],
	"buffers":[
		{
			"byteLength":93576,
			"uri":"data:application/octet-stream;base64,"
		}
	]
}
