{
	"asset":{
		"generator":"Khronos glTF Blender I/O v3.5.30",
		"version":"2.0"
	},
	"scene":0,
	"scenes":[
		{
			"name":"Scene",
			"nodes":[
				0,
				1
			]
		}
	],
	"nodes":[
		{
			"mesh":0,
			"name":"Cube.007",
			"scale":[
				0.3535005748271942,
				0.883751392364502,
				0.9993706941604614
			]
		},
		{
			"mesh":1,
			"name":"Cylinder",
			"rotation":[
				0.7071068286895752,
				0,
				0,
				0.7071068286895752
			],
			"translation":[
				0,
				10,
				9.193062782287598
			]
		}
	],
	"materials":[
		{
			"doubleSided":true,
			"name":"Material.010",
			"pbrMetallicRoughness":{
				"metallicFactor":0,
				"roughnessFactor":0.13565891981124878
			}
		}
	],
	"meshes":[
		{
			"name":"Cube.007",
			"primitives":[
				{
					"attributes":{
						"POSITION":0,
						"TEXCOORD_0":1,
						"NORMAL":2
					},
					"indices":3,
					"material":0
				}
			]
		},
		{
			"name":"Cylinder",
			"primitives":[
				{
					"attributes":{
						"POSITION":4,
						"TEXCOORD_0":5,
						"NORMAL":6
					},
					"indices":7,
					"material":0
				}
			]
		}
	],
	"accessors":[
		{
			"bufferView":0,
			"componentType":5126,
			"count":200,
			"max":[
				1.1049723625183105,
				1.563810110092163,
				1.0742260217666626
			],
			"min":[
				-1.1049704551696777,
				-1.4901161193847656e-08,
				-1.0742260217666626
			],
			"type":"VEC3"
		},
		{
			"bufferView":1,
			"componentType":5126,
			"count":200,
			"type":"VEC2"
		},
		{
			"bufferView":2,
			"componentType":5126,
			"count":200,
			"type":"VEC3"
		},
		{
			"bufferView":3,
			"componentType":5123,
			"count":516,
			"type":"SCALAR"
		},
		{
			"bufferView":4,
			"componentType":5126,
			"count":136,
			"max":[
				4.999995231628418,
				2.0669379234313965,
				12.475868225097656
			],
			"min":[
				-5.000004768371582,
				-7.933061599731445,
				8.708843231201172
			],
			"type":"VEC3"
		},
		{
			"bufferView":5,
			"componentType":5126,
			"count":136,
			"type":"VEC2"
		},
		{
			"bufferView":6,
			"componentType":5126,
			"count":136,
			"type":"VEC3"
		},
		{
			"bufferView":7,
			"componentType":5123,
			"count":204,
			"type":"SCALAR"
		}
	],
	"bufferViews":[
		{
			"buffer":0,
			"byteLength":2400,
			"byteOffset":0,
			"target":34962
		},
		{
			"buffer":0,
			"byteLength":1600,
			"byteOffset":2400,
			"target":34962
		},
		{
			"buffer":0,
			"byteLength":2400,
			"byteOffset":4000,
			"target":34962
		},
		{
			"buffer":0,
			"byteLength":1032,
			"byteOffset":6400,
			"target":34963
		},
		{
			"buffer":0,
			"byteLength":1632,
			"byteOffset":7432,
			"target":34962
		},
		{
			"buffer":0,
			"byteLength":1088,
			"byteOffset":9064,
			"target":34962
		},
		{
			"buffer":0,
			"byteLength":1632,
			"byteOffset":10152,
			"target":34962
		},
		{
			"buffer":0,
			"byteLength":408,
			"byteOffset":11784,
			"target":34963
		}
	],
	"buffers":[
		{
			"byteLength":12192,
			"uri":"data:application/octet-stream;base64,"
		}
	]
}
