{
	"asset":{
		"generator":"Khronos glTF Blender I/O v3.5.30",
		"version":"2.0"
	},
	"scene":0,
	"scenes":[
		{
			"name":"Scene",
			"nodes":[
				0
			]
		}
	],
	"nodes":[
		{
			"mesh":0,
			"name":"Cylinder.001",
			"rotation":[
				-0.47309842705726624,
				0,
				0,
				0.881009578704834
			],
			"scale":[
				4.901614665985107,
				4.901615142822266,
				4.901615142822266
			],
			"translation":[
				-0.2028951644897461,
				55.9999885559082,
				-6.564233303070068
			]
		}
	],
	"materials":[
		{
			"doubleSided":true,
			"name":"Material.001",
			"pbrMetallicRoughness":{}
		},
		{
			"doubleSided":true,
			"name":"Material.002",
			"pbrMetallicRoughness":{}
		},
		{
			"doubleSided":true,
			"name":"Material.003",
			"pbrMetallicRoughness":{
				"baseColorFactor":[
					0.09850405156612396,
					0.09011858701705933,
					0.09264929592609406,
					1
				],
				"metallicFactor":0,
				"roughnessFactor":0
			}
		},
		{
			"doubleSided":true,
			"name":"Material.006",
			"pbrMetallicRoughness":{}
		},
		{
			"doubleSided":true,
			"name":"Material.007",
			"pbrMetallicRoughness":{}
		},
		{
			"doubleSided":true,
			"name":"Material.004",
			"pbrMetallicRoughness":{}
		},
		{
			"doubleSided":true,
			"name":"Material.005",
			"pbrMetallicRoughness":{}
		}
	],
	"meshes":[
		{
			"name":"Cylinder.001",
			"primitives":[
				{
					"attributes":{
						"POSITION":0,
						"TEXCOORD_0":1,
						"NORMAL":2
					},
					"indices":3,
					"material":0
				},
				{
					"attributes":{
						"POSITION":4,
						"TEXCOORD_0":5,
						"NORMAL":6
					},
					"indices":7,
					"material":1
				},
				{
					"attributes":{
						"POSITION":8,
						"TEXCOORD_0":9,
						"NORMAL":10
					},
					"indices":11,
					"material":2
				},
				{
					"attributes":{
						"POSITION":12,
						"TEXCOORD_0":13,
						"NORMAL":14
					},
					"indices":15,
					"material":3
				},
				{
					"attributes":{
						"POSITION":16,
						"TEXCOORD_0":17,
						"NORMAL":18
					},
					"indices":15,
					"material":4
				},
				{
					"attributes":{
						"POSITION":19,
						"TEXCOORD_0":20,
						"NORMAL":21
					},
					"indices":22,
					"material":5
				},
				{
					"attributes":{
						"POSITION":23,
						"TEXCOORD_0":24,
						"NORMAL":25
					},
					"indices":26,
					"material":6
				}
			]
		}
	],
	"accessors":[
		{
			"bufferView":0,
			"componentType":5126,
			"count":736,
			"max":[
				0.928598940372467,
				1.0348622798919678,
				0.9036333560943604
			],
			"min":[
				-0.9191596508026123,
				0.41754579544067383,
				-0.9441249370574951
			],
			"type":"VEC3"
		},
		{
			"bufferView":1,
			"componentType":5126,
			"count":736,
			"type":"VEC2"
		},
		{
			"bufferView":2,
			"componentType":5126,
			"count":736,
			"type":"VEC3"
		},
		{
			"bufferView":3,
			"componentType":5123,
			"count":1056,
			"type":"SCALAR"
		},
		{
			"bufferView":4,
			"componentType":5126,
			"count":9112,
			"max":[
				2.974893569946289,
				3.14553165435791,
				1.4378057718276978
			],
			"min":[
				-1.6067613363265991,
				-6.947602272033691,
				-9.90510368347168
			],
			"type":"VEC3"
		},
		{
			"bufferView":5,
			"componentType":5126,
			"count":9112,
			"type":"VEC2"
		},
		{
			"bufferView":6,
			"componentType":5126,
			"count":9112,
			"type":"VEC3"
		},
		{
			"bufferView":7,
			"componentType":5123,
			"count":17148,
			"type":"SCALAR"
		},
		{
			"bufferView":8,
			"componentType":5126,
			"count":1356,
			"max":[
				1.2456769943237305,
				2.1050586700439453,
				1.220712423324585
			],
			"min":[
				-1.2362375259399414,
				0.15852662920951843,
				-1.261202096939087
			],
			"type":"VEC3"
		},
		{
			"bufferView":9,
			"componentType":5126,
			"count":1356,
			"type":"VEC2"
		},
		{
			"bufferView":10,
			"componentType":5126,
			"count":1356,
			"type":"VEC3"
		},
		{
			"bufferView":11,
			"componentType":5123,
			"count":7104,
			"type":"SCALAR"
		},
		{
			"bufferView":12,
			"componentType":5126,
			"count":1984,
			"max":[
				-1.004290223121643,
				0.14354929327964783,
				0.1435503512620926
			],
			"min":[
				-1.291387677192688,
				-0.14354828000068665,
				-0.14354725182056427
			],
			"type":"VEC3"
		},
		{
			"bufferView":13,
			"componentType":5126,
			"count":1984,
			"type":"VEC2"
		},
		{
			"bufferView":14,
			"componentType":5126,
			"count":1984,
			"type":"VEC3"
		},
		{
			"bufferView":15,
			"componentType":5123,
			"count":2880,
			"type":"SCALAR"
		},
		{
			"bufferView":16,
			"componentType":5126,
			"count":1984,
			"max":[
				1.2913877964019775,
				0.14354929327964783,
				0.1435503512620926
			],
			"min":[
				1.0042903423309326,
				-0.14354828000068665,
				-0.14354725182056427
			],
			"type":"VEC3"
		},
		{
			"bufferView":17,
			"componentType":5126,
			"count":1984,
			"type":"VEC2"
		},
		{
			"bufferView":18,
			"componentType":5126,
			"count":1984,
			"type":"VEC3"
		},
		{
			"bufferView":19,
			"componentType":5126,
			"count":754,
			"max":[
				0.23893782496452332,
				-5.119530200958252,
				-5.135388374328613
			],
			"min":[
				-0.16909188032150269,
				-10.360694885253906,
				-7.01649808883667
			],
			"type":"VEC3"
		},
		{
			"bufferView":20,
			"componentType":5126,
			"count":754,
			"type":"VEC2"
		},
		{
			"bufferView":21,
			"componentType":5126,
			"count":754,
			"type":"VEC3"
		},
		{
			"bufferView":22,
			"componentType":5123,
			"count":1434,
			"type":"SCALAR"
		},
		{
			"bufferView":23,
			"componentType":5126,
			"count":766,
			"max":[
				0.20819099247455597,
				-4.974809169769287,
				-5.221053123474121
			],
			"min":[
				-2.9050488471984863,
				-5.988346576690674,
				-9.90510368347168
			],
			"type":"VEC3"
		},
		{
			"bufferView":24,
			"componentType":5126,
			"count":766,
			"type":"VEC2"
		},
		{
			"bufferView":25,
			"componentType":5126,
			"count":766,
			"type":"VEC3"
		},
		{
			"bufferView":26,
			"componentType":5123,
			"count":1434,
			"type":"SCALAR"
		}
	],
	"bufferViews":[
		{
			"buffer":0,
			"byteLength":8832,
			"byteOffset":0,
			"target":34962
		},
		{
			"buffer":0,
			"byteLength":5888,
			"byteOffset":8832,
			"target":34962
		},
		{
			"buffer":0,
			"byteLength":8832,
			"byteOffset":14720,
			"target":34962
		},
		{
			"buffer":0,
			"byteLength":2112,
			"byteOffset":23552,
			"target":34963
		},
		{
			"buffer":0,
			"byteLength":109344,
			"byteOffset":25664,
			"target":34962
		},
		{
			"buffer":0,
			"byteLength":72896,
			"byteOffset":135008,
			"target":34962
		},
		{
			"buffer":0,
			"byteLength":109344,
			"byteOffset":207904,
			"target":34962
		},
		{
			"buffer":0,
			"byteLength":34296,
			"byteOffset":317248,
			"target":34963
		},
		{
			"buffer":0,
			"byteLength":16272,
			"byteOffset":351544,
			"target":34962
		},
		{
			"buffer":0,
			"byteLength":10848,
			"byteOffset":367816,
			"target":34962
		},
		{
			"buffer":0,
			"byteLength":16272,
			"byteOffset":378664,
			"target":34962
		},
		{
			"buffer":0,
			"byteLength":14208,
			"byteOffset":394936,
			"target":34963
		},
		{
			"buffer":0,
			"byteLength":23808,
			"byteOffset":409144,
			"target":34962
		},
		{
			"buffer":0,
			"byteLength":15872,
			"byteOffset":432952,
			"target":34962
		},
		{
			"buffer":0,
			"byteLength":23808,
			"byteOffset":448824,
			"target":34962
		},
		{
			"buffer":0,
			"byteLength":5760,
			"byteOffset":472632,
			"target":34963
		},
		{
			"buffer":0,
			"byteLength":23808,
			"byteOffset":478392,
			"target":34962
		},
		{
			"buffer":0,
			"byteLength":15872,
			"byteOffset":502200,
			"target":34962
		},
		{
			"buffer":0,
			"byteLength":23808,
			"byteOffset":518072,
			"target":34962
		},
		{
			"buffer":0,
			"byteLength":9048,
			"byteOffset":541880,
			"target":34962
		},
		{
			"buffer":0,
			"byteLength":6032,
			"byteOffset":550928,
			"target":34962
		},
		{
			"buffer":0,
			"byteLength":9048,
			"byteOffset":556960,
			"target":34962
		},
		{
			"buffer":0,
			"byteLength":2868,
			"byteOffset":566008,
			"target":34963
		},
		{
			"buffer":0,
			"byteLength":9192,
			"byteOffset":568876,
			"target":34962
		},
		{
			"buffer":0,
			"byteLength":6128,
			"byteOffset":578068,
			"target":34962
		},
		{
			"buffer":0,
			"byteLength":9192,
			"byteOffset":584196,
			"target":34962
		},
		{
			"buffer":0,
			"byteLength":2868,
			"byteOffset":593388,
			"target":34963
		}
	],
	"buffers":[
		{
			"byteLength":596256,
			"uri":"data:application/octet-stream;base64,"
		}
	]
}
