{
	"asset":{
		"generator":"Khronos glTF Blender I/O v3.5.30",
		"version":"2.0"
	},
	"scene":0,
	"scenes":[
		{
			"name":"Scene",
			"nodes":[
				5,
				6,
				7,
				8,
				9,
				10,
				11,
				12,
				13,
				14,
				15
			]
		}
	],
	"nodes":[
		{
			"mesh":0,
			"name":"Cylinder.001",
			"translation":[
				0,
				0,
				-3.039836883544922e-06
			]
		},
		{
			"mesh":1,
			"name":"Cylinder.006",
			"rotation":[
				0.628243088722229,
				0,
				0,
				0.7780171632766724
			]
		},
		{
			"mesh":2,
			"name":"Sphere.003",
			"rotation":[
				0.7071068286895752,
				0,
				0,
				0.7071068286895752
			],
			"scale":[
				0.20401440560817719,
				0.20401442050933838,
				0.20401442050933838
			]
		},
		{
			"mesh":3,
			"name":"Sphere.004",
			"rotation":[
				0.7071068286895752,
				0,
				0,
				0.7071068286895752
			],
			"scale":[
				0.20401440560817719,
				0.20401442050933838,
				0.20401442050933838
			]
		},
		{
			"mesh":4,
			"name":"Torus.001",
			"rotation":[
				1,
				0,
				0,
				1.2379618219426902e-08
			],
			"scale":[
				-1.2036850452423096,
				-1.5592981576919556,
				-1.2036850452423096
			],
			"translation":[
				0,
				0,
				-2.9802322387695312e-06
			]
		},
		{
			"children":[
				0,
				1,
				2,
				3,
				4
			],
			"mesh":5,
			"name":"Cylinder",
			"rotation":[
				-0.8995325565338135,
				0,
				0,
				0.43685370683670044
			],
			"scale":[
				4.901614665985107,
				4.901614665985107,
				4.901614665985107
			],
			"translation":[
				-0.2028951644897461,
				55.999996185302734,
				-6.5642290115356445
			]
		},
		{
			"mesh":6,
			"name":"Cylinder.002",
			"rotation":[
				0,
				0,
				-0.7071066498756409,
				0.70710688829422
			],
			"translation":[
				-0.19171378016471863,
				56,
				0.15724718570709229
			]
		},
		{
			"mesh":7,
			"name":"Cylinder.003",
			"scale":[
				0.8044242858886719,
				1,
				1
			],
			"translation":[
				-0.03171376883983612,
				55,
				0.15724718570709229
			]
		},
		{
			"mesh":8,
			"name":"Cylinder.004",
			"rotation":[
				-0.7071068286895752,
				0,
				0,
				0.7071068286895752
			],
			"translation":[
				5.423371315002441,
				56,
				-0.21060621738433838
			]
		},
		{
			"mesh":9,
			"name":"Cylinder.005",
			"rotation":[
				-0.7071068286895752,
				0,
				0,
				0.7071068286895752
			],
			"translation":[
				-5.829156875610352,
				56,
				-0.21060621738433838
			]
		},
		{
			"mesh":10,
			"name":"Sphere",
			"scale":[
				1.0153498649597168,
				1.2622069120407104,
				1.2622069120407104
			],
			"translation":[
				-0.035274527966976166,
				56,
				0.15724718570709229
			]
		},
		{
			"mesh":11,
			"name":"Sphere.001",
			"translation":[
				-5.806799411773682,
				56,
				0.1572479009628296
			]
		},
		{
			"mesh":12,
			"name":"Sphere.002",
			"translation":[
				5.423371315002441,
				56,
				0.15724647045135498
			]
		},
		{
			"mesh":13,
			"name":"Cylinder.007",
			"rotation":[
				-0.282571017742157,
				0.10284756869077682,
				-0.8962007164955139,
				0.3261905312538147
			],
			"translation":[
				-0.03171838819980621,
				20.199840545654297,
				0.15724718570709229
			]
		},
		{
			"mesh":14,
			"name":"Cylinder.008",
			"rotation":[
				0.6644630432128906,
				-0.24184481799602509,
				-0.6644630432128906,
				0.24184495210647583
			],
			"translation":[
				-0.03171838819980621,
				20.199840545654297,
				0.15724718570709229
			]
		},
		{
			"mesh":15,
			"name":"Cylinder.009",
			"rotation":[
				-0.8962007164955139,
				0.3261905312538147,
				-0.2825711667537689,
				0.10284747183322906
			],
			"translation":[
				-0.03171838819980621,
				20.199840545654297,
				0.15724718570709229
			]
		}
	],
	"materials":[
		{
			"doubleSided":true,
			"name":"Material.001",
			"pbrMetallicRoughness":{}
		},
		{
			"doubleSided":true,
			"name":"Material.002",
			"pbrMetallicRoughness":{}
		},
		{
			"doubleSided":true,
			"name":"Material.006",
			"pbrMetallicRoughness":{}
		},
		{
			"doubleSided":true,
			"name":"Material.007",
			"pbrMetallicRoughness":{}
		},
		{
			"doubleSided":true,
			"name":"Material.003",
			"pbrMetallicRoughness":{
				"baseColorFactor":[
					0.09850405156612396,
					0.09011858701705933,
					0.09264929592609406,
					1
				],
				"metallicFactor":0,
				"roughnessFactor":0
			}
		},
		{
			"doubleSided":true,
			"name":"Material.004",
			"pbrMetallicRoughness":{}
		},
		{
			"doubleSided":true,
			"name":"Material.005",
			"pbrMetallicRoughness":{}
		}
	],
	"meshes":[
		{
			"name":"Cylinder.001",
			"primitives":[
				{
					"attributes":{
						"POSITION":0,
						"TEXCOORD_0":1,
						"NORMAL":2
					},
					"indices":3,
					"material":0
				}
			]
		},
		{
			"name":"Cylinder.006",
			"primitives":[
				{
					"attributes":{
						"POSITION":4,
						"TEXCOORD_0":5,
						"NORMAL":6
					},
					"indices":7,
					"material":1
				}
			]
		},
		{
			"name":"Sphere.004",
			"primitives":[
				{
					"attributes":{
						"POSITION":8,
						"TEXCOORD_0":9,
						"NORMAL":10
					},
					"indices":11,
					"material":2
				}
			]
		},
		{
			"name":"Sphere.005",
			"primitives":[
				{
					"attributes":{
						"POSITION":12,
						"TEXCOORD_0":13,
						"NORMAL":14
					},
					"indices":11,
					"material":3
				}
			]
		},
		{
			"name":"Torus.001",
			"primitives":[
				{
					"attributes":{
						"POSITION":15,
						"TEXCOORD_0":16,
						"NORMAL":17
					},
					"indices":18,
					"material":4
				}
			]
		},
		{
			"name":"Cylinder",
			"primitives":[
				{
					"attributes":{
						"POSITION":19,
						"TEXCOORD_0":20,
						"NORMAL":21
					},
					"indices":22,
					"material":1
				}
			]
		},
		{
			"name":"Cylinder.010",
			"primitives":[
				{
					"attributes":{
						"POSITION":23,
						"TEXCOORD_0":24,
						"NORMAL":25
					},
					"indices":26,
					"material":1
				}
			]
		},
		{
			"name":"Cylinder.008",
			"primitives":[
				{
					"attributes":{
						"POSITION":27,
						"TEXCOORD_0":28,
						"NORMAL":29
					},
					"indices":30,
					"material":1
				}
			]
		},
		{
			"name":"Cylinder.011",
			"primitives":[
				{
					"attributes":{
						"POSITION":31,
						"TEXCOORD_0":32,
						"NORMAL":33
					},
					"indices":34,
					"material":1
				}
			]
		},
		{
			"name":"Cylinder.012",
			"primitives":[
				{
					"attributes":{
						"POSITION":35,
						"TEXCOORD_0":36,
						"NORMAL":37
					},
					"indices":34,
					"material":1
				}
			]
		},
		{
			"name":"Sphere.001",
			"primitives":[
				{
					"attributes":{
						"POSITION":38,
						"TEXCOORD_0":39,
						"NORMAL":40
					},
					"indices":41,
					"material":1
				}
			]
		},
		{
			"name":"Sphere.002",
			"primitives":[
				{
					"attributes":{
						"POSITION":42,
						"TEXCOORD_0":43,
						"NORMAL":44
					},
					"indices":45,
					"material":1
				}
			]
		},
		{
			"name":"Sphere.003",
			"primitives":[
				{
					"attributes":{
						"POSITION":46,
						"TEXCOORD_0":47,
						"NORMAL":48
					},
					"indices":45,
					"material":1
				}
			]
		},
		{
			"name":"Cylinder.013",
			"primitives":[
				{
					"attributes":{
						"POSITION":49,
						"TEXCOORD_0":50,
						"NORMAL":51
					},
					"indices":52,
					"material":1
				}
			]
		},
		{
			"name":"Cylinder.004",
			"primitives":[
				{
					"attributes":{
						"POSITION":53,
						"TEXCOORD_0":54,
						"NORMAL":55
					},
					"indices":52,
					"material":5
				}
			]
		},
		{
			"name":"Cylinder.005",
			"primitives":[
				{
					"attributes":{
						"POSITION":56,
						"TEXCOORD_0":57,
						"NORMAL":58
					},
					"indices":52,
					"material":6
				}
			]
		}
	],
	"accessors":[
		{
			"bufferView":0,
			"componentType":5126,
			"count":736,
			"max":[
				0.928598940372467,
				1.0348622798919678,
				0.9036333560943604
			],
			"min":[
				-0.9191596508026123,
				0.41754579544067383,
				-0.9441249370574951
			],
			"type":"VEC3"
		},
		{
			"bufferView":1,
			"componentType":5126,
			"count":736,
			"type":"VEC2"
		},
		{
			"bufferView":2,
			"componentType":5126,
			"count":736,
			"type":"VEC3"
		},
		{
			"bufferView":3,
			"componentType":5123,
			"count":1056,
			"type":"SCALAR"
		},
		{
			"bufferView":4,
			"componentType":5126,
			"count":84,
			"max":[
				1.5979498624801636,
				2.0657010078430176,
				-1.8535542488098145
			],
			"min":[
				-1.6067613363265991,
				-0.7631871700286865,
				-3.377197265625
			],
			"type":"VEC3"
		},
		{
			"bufferView":5,
			"componentType":5126,
			"count":84,
			"type":"VEC2"
		},
		{
			"bufferView":6,
			"componentType":5126,
			"count":84,
			"type":"VEC3"
		},
		{
			"bufferView":7,
			"componentType":5123,
			"count":228,
			"type":"SCALAR"
		},
		{
			"bufferView":8,
			"componentType":5126,
			"count":1984,
			"max":[
				-4.922643661499023,
				0.7036171555519104,
				0.7036207318305969
			],
			"min":[
				-6.329885005950928,
				-0.7036247849464417,
				-0.7036210298538208
			],
			"type":"VEC3"
		},
		{
			"bufferView":9,
			"componentType":5126,
			"count":1984,
			"type":"VEC2"
		},
		{
			"bufferView":10,
			"componentType":5126,
			"count":1984,
			"type":"VEC3"
		},
		{
			"bufferView":11,
			"componentType":5123,
			"count":2880,
			"type":"SCALAR"
		},
		{
			"bufferView":12,
			"componentType":5126,
			"count":1984,
			"max":[
				6.329885482788086,
				0.7036171555519104,
				0.7036207318305969
			],
			"min":[
				4.922644138336182,
				-0.7036247849464417,
				-0.7036210298538208
			],
			"type":"VEC3"
		},
		{
			"bufferView":13,
			"componentType":5126,
			"count":1984,
			"type":"VEC2"
		},
		{
			"bufferView":14,
			"componentType":5126,
			"count":1984,
			"type":"VEC3"
		},
		{
			"bufferView":15,
			"componentType":5126,
			"count":1356,
			"max":[
				1.0270440578460693,
				1.350003719329834,
				1.0141445398330688
			],
			"min":[
				-1.034886121749878,
				0.10166537761688232,
				-1.0477856397628784
			],
			"type":"VEC3"
		},
		{
			"bufferView":16,
			"componentType":5126,
			"count":1356,
			"type":"VEC2"
		},
		{
			"bufferView":17,
			"componentType":5126,
			"count":1356,
			"type":"VEC3"
		},
		{
			"bufferView":18,
			"componentType":5123,
			"count":7104,
			"type":"SCALAR"
		},
		{
			"bufferView":19,
			"componentType":5126,
			"count":774,
			"max":[
				1.2282614707946777,
				2.1318118572235107,
				1.211807131767273
			],
			"min":[
				-1.2224632501602173,
				-0.9673920273780823,
				-1.2545924186706543
			],
			"type":"VEC3"
		},
		{
			"bufferView":20,
			"componentType":5126,
			"count":774,
			"type":"VEC2"
		},
		{
			"bufferView":21,
			"componentType":5126,
			"count":774,
			"type":"VEC3"
		},
		{
			"bufferView":22,
			"componentType":5123,
			"count":3246,
			"type":"SCALAR"
		},
		{
			"bufferView":23,
			"componentType":5126,
			"count":192,
			"max":[
				0.3584904074668884,
				5.615088939666748,
				0.3584899306297302
			],
			"min":[
				-0.35849112272262573,
				-5.615088939666748,
				-0.35848987102508545
			],
			"type":"VEC3"
		},
		{
			"bufferView":24,
			"componentType":5126,
			"count":192,
			"type":"VEC2"
		},
		{
			"bufferView":25,
			"componentType":5126,
			"count":192,
			"type":"VEC3"
		},
		{
			"bufferView":26,
			"componentType":5123,
			"count":372,
			"type":"SCALAR"
		},
		{
			"bufferView":27,
			"componentType":5126,
			"count":768,
			"max":[
				1,
				1,
				1
			],
			"min":[
				-1.0000057220458984,
				-49,
				-1
			],
			"type":"VEC3"
		},
		{
			"bufferView":28,
			"componentType":5126,
			"count":768,
			"type":"VEC2"
		},
		{
			"bufferView":29,
			"componentType":5126,
			"count":768,
			"type":"VEC3"
		},
		{
			"bufferView":30,
			"componentType":5123,
			"count":2100,
			"type":"SCALAR"
		},
		{
			"bufferView":31,
			"componentType":5126,
			"count":256,
			"max":[
				0.31384819746017456,
				6.753620147705078,
				0.31384819746017456
			],
			"min":[
				-0.31384819746017456,
				-0.3536202311515808,
				-0.31384819746017456
			],
			"type":"VEC3"
		},
		{
			"bufferView":32,
			"componentType":5126,
			"count":256,
			"type":"VEC2"
		},
		{
			"bufferView":33,
			"componentType":5126,
			"count":256,
			"type":"VEC3"
		},
		{
			"bufferView":34,
			"componentType":5123,
			"count":564,
			"type":"SCALAR"
		},
		{
			"bufferView":35,
			"componentType":5126,
			"count":256,
			"max":[
				0.31384819746017456,
				6.753620147705078,
				0.31384819746017456
			],
			"min":[
				-0.31384819746017456,
				-0.3536202311515808,
				-0.31384819746017456
			],
			"type":"VEC3"
		},
		{
			"bufferView":36,
			"componentType":5126,
			"count":256,
			"type":"VEC2"
		},
		{
			"bufferView":37,
			"componentType":5126,
			"count":256,
			"type":"VEC3"
		},
		{
			"bufferView":38,
			"componentType":5126,
			"count":1984,
			"max":[
				0.9999997019767761,
				1,
				0.9999993443489075
			],
			"min":[
				-0.9999990463256836,
				-1,
				-1
			],
			"type":"VEC3"
		},
		{
			"bufferView":39,
			"componentType":5126,
			"count":1984,
			"type":"VEC2"
		},
		{
			"bufferView":40,
			"componentType":5126,
			"count":1984,
			"type":"VEC3"
		},
		{
			"bufferView":41,
			"componentType":5123,
			"count":2880,
			"type":"SCALAR"
		},
		{
			"bufferView":42,
			"componentType":5126,
			"count":1984,
			"max":[
				0.3999972939491272,
				0.3999999761581421,
				0.399999737739563
			],
			"min":[
				-0.40000224113464355,
				-0.3999999761581421,
				-0.3999999761581421
			],
			"type":"VEC3"
		},
		{
			"bufferView":43,
			"componentType":5126,
			"count":1984,
			"type":"VEC2"
		},
		{
			"bufferView":44,
			"componentType":5126,
			"count":1984,
			"type":"VEC3"
		},
		{
			"bufferView":45,
			"componentType":5123,
			"count":2880,
			"type":"SCALAR"
		},
		{
			"bufferView":46,
			"componentType":5126,
			"count":1984,
			"max":[
				0.3999972939491272,
				0.3999999761581421,
				0.399999737739563
			],
			"min":[
				-0.40000224113464355,
				-0.3999999761581421,
				-0.3999999761581421
			],
			"type":"VEC3"
		},
		{
			"bufferView":47,
			"componentType":5126,
			"count":1984,
			"type":"VEC2"
		},
		{
			"bufferView":48,
			"componentType":5126,
			"count":1984,
			"type":"VEC3"
		},
		{
			"bufferView":49,
			"componentType":5126,
			"count":740,
			"max":[
				1.0000087022781372,
				26.385324478149414,
				1
			],
			"min":[
				-0.9999982714653015,
				0,
				-1
			],
			"type":"VEC3"
		},
		{
			"bufferView":50,
			"componentType":5126,
			"count":740,
			"type":"VEC2"
		},
		{
			"bufferView":51,
			"componentType":5126,
			"count":740,
			"type":"VEC3"
		},
		{
			"bufferView":52,
			"componentType":5123,
			"count":1434,
			"type":"SCALAR"
		},
		{
			"bufferView":53,
			"componentType":5126,
			"count":740,
			"max":[
				1.0000087022781372,
				26.385324478149414,
				1
			],
			"min":[
				-0.9999982714653015,
				0,
				-1
			],
			"type":"VEC3"
		},
		{
			"bufferView":54,
			"componentType":5126,
			"count":740,
			"type":"VEC2"
		},
		{
			"bufferView":55,
			"componentType":5126,
			"count":740,
			"type":"VEC3"
		},
		{
			"bufferView":56,
			"componentType":5126,
			"count":740,
			"max":[
				1.0000087022781372,
				26.385324478149414,
				1
			],
			"min":[
				-0.9999982714653015,
				0,
				-1
			],
			"type":"VEC3"
		},
		{
			"bufferView":57,
			"componentType":5126,
			"count":740,
			"type":"VEC2"
		},
		{
			"bufferView":58,
			"componentType":5126,
			"count":740,
			"type":"VEC3"
		}
	],
	"bufferViews":[
		{
			"buffer":0,
			"byteLength":8832,
			"byteOffset":0,
			"target":34962
		},
		{
			"buffer":0,
			"byteLength":5888,
			"byteOffset":8832,
			"target":34962
		},
		{
			"buffer":0,
			"byteLength":8832,
			"byteOffset":14720,
			"target":34962
		},
		{
			"buffer":0,
			"byteLength":2112,
			"byteOffset":23552,
			"target":34963
		},
		{
			"buffer":0,
			"byteLength":1008,
			"byteOffset":25664,
			"target":34962
		},
		{
			"buffer":0,
			"byteLength":672,
			"byteOffset":26672,
			"target":34962
		},
		{
			"buffer":0,
			"byteLength":1008,
			"byteOffset":27344,
			"target":34962
		},
		{
			"buffer":0,
			"byteLength":456,
			"byteOffset":28352,
			"target":34963
		},
		{
			"buffer":0,
			"byteLength":23808,
			"byteOffset":28808,
			"target":34962
		},
		{
			"buffer":0,
			"byteLength":15872,
			"byteOffset":52616,
			"target":34962
		},
		{
			"buffer":0,
			"byteLength":23808,
			"byteOffset":68488,
			"target":34962
		},
		{
			"buffer":0,
			"byteLength":5760,
			"byteOffset":92296,
			"target":34963
		},
		{
			"buffer":0,
			"byteLength":23808,
			"byteOffset":98056,
			"target":34962
		},
		{
			"buffer":0,
			"byteLength":15872,
			"byteOffset":121864,
			"target":34962
		},
		{
			"buffer":0,
			"byteLength":23808,
			"byteOffset":137736,
			"target":34962
		},
		{
			"buffer":0,
			"byteLength":16272,
			"byteOffset":161544,
			"target":34962
		},
		{
			"buffer":0,
			"byteLength":10848,
			"byteOffset":177816,
			"target":34962
		},
		{
			"buffer":0,
			"byteLength":16272,
			"byteOffset":188664,
			"target":34962
		},
		{
			"buffer":0,
			"byteLength":14208,
			"byteOffset":204936,
			"target":34963
		},
		{
			"buffer":0,
			"byteLength":9288,
			"byteOffset":219144,
			"target":34962
		},
		{
			"buffer":0,
			"byteLength":6192,
			"byteOffset":228432,
			"target":34962
		},
		{
			"buffer":0,
			"byteLength":9288,
			"byteOffset":234624,
			"target":34962
		},
		{
			"buffer":0,
			"byteLength":6492,
			"byteOffset":243912,
			"target":34963
		},
		{
			"buffer":0,
			"byteLength":2304,
			"byteOffset":250404,
			"target":34962
		},
		{
			"buffer":0,
			"byteLength":1536,
			"byteOffset":252708,
			"target":34962
		},
		{
			"buffer":0,
			"byteLength":2304,
			"byteOffset":254244,
			"target":34962
		},
		{
			"buffer":0,
			"byteLength":744,
			"byteOffset":256548,
			"target":34963
		},
		{
			"buffer":0,
			"byteLength":9216,
			"byteOffset":257292,
			"target":34962
		},
		{
			"buffer":0,
			"byteLength":6144,
			"byteOffset":266508,
			"target":34962
		},
		{
			"buffer":0,
			"byteLength":9216,
			"byteOffset":272652,
			"target":34962
		},
		{
			"buffer":0,
			"byteLength":4200,
			"byteOffset":281868,
			"target":34963
		},
		{
			"buffer":0,
			"byteLength":3072,
			"byteOffset":286068,
			"target":34962
		},
		{
			"buffer":0,
			"byteLength":2048,
			"byteOffset":289140,
			"target":34962
		},
		{
			"buffer":0,
			"byteLength":3072,
			"byteOffset":291188,
			"target":34962
		},
		{
			"buffer":0,
			"byteLength":1128,
			"byteOffset":294260,
			"target":34963
		},
		{
			"buffer":0,
			"byteLength":3072,
			"byteOffset":295388,
			"target":34962
		},
		{
			"buffer":0,
			"byteLength":2048,
			"byteOffset":298460,
			"target":34962
		},
		{
			"buffer":0,
			"byteLength":3072,
			"byteOffset":300508,
			"target":34962
		},
		{
			"buffer":0,
			"byteLength":23808,
			"byteOffset":303580,
			"target":34962
		},
		{
			"buffer":0,
			"byteLength":15872,
			"byteOffset":327388,
			"target":34962
		},
		{
			"buffer":0,
			"byteLength":23808,
			"byteOffset":343260,
			"target":34962
		},
		{
			"buffer":0,
			"byteLength":5760,
			"byteOffset":367068,
			"target":34963
		},
		{
			"buffer":0,
			"byteLength":23808,
			"byteOffset":372828,
			"target":34962
		},
		{
			"buffer":0,
			"byteLength":15872,
			"byteOffset":396636,
			"target":34962
		},
		{
			"buffer":0,
			"byteLength":23808,
			"byteOffset":412508,
			"target":34962
		},
		{
			"buffer":0,
			"byteLength":5760,
			"byteOffset":436316,
			"target":34963
		},
		{
			"buffer":0,
			"byteLength":23808,
			"byteOffset":442076,
			"target":34962
		},
		{
			"buffer":0,
			"byteLength":15872,
			"byteOffset":465884,
			"target":34962
		},
		{
			"buffer":0,
			"byteLength":23808,
			"byteOffset":481756,
			"target":34962
		},
		{
			"buffer":0,
			"byteLength":8880,
			"byteOffset":505564,
			"target":34962
		},
		{
			"buffer":0,
			"byteLength":5920,
			"byteOffset":514444,
			"target":34962
		},
		{
			"buffer":0,
			"byteLength":8880,
			"byteOffset":520364,
			"target":34962
		},
		{
			"buffer":0,
			"byteLength":2868,
			"byteOffset":529244,
			"target":34963
		},
		{
			"buffer":0,
			"byteLength":8880,
			"byteOffset":532112,
			"target":34962
		},
		{
			"buffer":0,
			"byteLength":5920,
			"byteOffset":540992,
			"target":34962
		},
		{
			"buffer":0,
			"byteLength":8880,
			"byteOffset":546912,
			"target":34962
		},
		{
			"buffer":0,
			"byteLength":8880,
			"byteOffset":555792,
			"target":34962
		},
		{
			"buffer":0,
			"byteLength":5920,
			"byteOffset":564672,
			"target":34962
		},
		{
			"buffer":0,
			"byteLength":8880,
			"byteOffset":570592,
			"target":34962
		}
	],
	"buffers":[
		{
			"byteLength":579472,
			"uri":"data:application/octet-stream;base64,"
		}
	]
}
