{
	"asset":{
		"generator":"Khronos glTF Blender I/O v3.5.30",
		"version":"2.0"
	},
	"extensionsUsed":[
		"KHR_materials_specular"
	],
	"scene":0,
	"scenes":[
		{
			"name":"Scene",
			"nodes":[
				1
			]
		}
	],
	"nodes":[
		{
			"mesh":0,
			"name":"SCREEN",
			"scale":[
				0.49562621116638184,
				0.49562621116638184,
				0.49562621116638184
			],
			"translation":[
				-0.08075522631406784,
				0.10942405462265015,
				0
			]
		},
		{
			"children":[
				0
			],
			"mesh":1,
			"name":"contact",
			"scale":[
				2.0176496505737305,
				2.0176496505737305,
				2.0176496505737305
			],
			"translation":[
				0,
				1.7000000476837158,
				0
			]
		}
	],
	"materials":[
		{
			"doubleSided":true,
			"name":"Display.003",
			"pbrMetallicRoughness":{
				"baseColorTexture":{
					"index":0
				},
				"metallicFactor":0,
				"roughnessFactor":0
			}
		},
		{
			"doubleSided":true,
			"extensions":{
				"KHR_materials_specular":{
					"specularColorFactor":[
						0.6511628031730651,
						0.6511628031730651,
						0.6511628031730651
					]
				}
			},
			"name":"FrameGrey.003",
			"pbrMetallicRoughness":{
				"baseColorFactor":[
					0.19120171666145325,
					0.19120171666145325,
					0.19120171666145325,
					1
				],
				"metallicFactor":0,
				"roughnessFactor":0.5356233716011047
			}
		},
		{
			"doubleSided":true,
			"name":"Front.003",
			"pbrMetallicRoughness":{
				"baseColorFactor":[
					0.13013650476932526,
					0.13013650476932526,
					0.13013650476932526,
					1
				],
				"metallicFactor":0.30454546213150024,
				"roughnessFactor":0.3272727131843567
			}
		},
		{
			"doubleSided":true,
			"name":"Antennaline.003",
			"pbrMetallicRoughness":{
				"baseColorFactor":[
					0.07227185368537903,
					0.07227186113595963,
					0.07227186858654022,
					1
				],
				"metallicFactor":0,
				"roughnessFactor":0.836363673210144
			}
		},
		{
			"doubleSided":true,
			"name":"BackGrey.003",
			"pbrMetallicRoughness":{
				"baseColorFactor":[
					0.11443537473678589,
					0.11443537473678589,
					0.11443537473678589,
					1
				],
				"metallicFactor":0,
				"roughnessFactor":0
			}
		},
		{
			"doubleSided":true,
			"name":"Rubber.003",
			"pbrMetallicRoughness":{
				"baseColorFactor":[
					0.013320556841790676,
					0.013320556841790676,
					0.013320556841790676,
					1
				],
				"metallicFactor":0
			}
		},
		{
			"doubleSided":true,
			"name":"BackCaneraGrayRIng.003",
			"pbrMetallicRoughness":{
				"baseColorFactor":[
					0.023153357207775116,
					0.023153364658355713,
					0.023153362795710564,
					1
				],
				"metallicFactor":0,
				"roughnessFactor":0.6954545378684998
			}
		},
		{
			"doubleSided":true,
			"name":"Lens.003",
			"pbrMetallicRoughness":{
				"baseColorFactor":[
					0.10461649298667908,
					0.2874408960342407,
					1,
					1
				],
				"roughnessFactor":0
			}
		},
		{
			"doubleSided":true,
			"name":"Black.003",
			"pbrMetallicRoughness":{
				"baseColorFactor":[
					0.011784186586737633,
					0.011784186586737633,
					0.011784186586737633,
					1
				],
				"metallicFactor":0,
				"roughnessFactor":0.5
			}
		},
		{
			"doubleSided":true,
			"name":"Frame.003",
			"pbrMetallicRoughness":{
				"baseColorFactor":[
					0.479320228099823,
					0.479320228099823,
					0.479320228099823,
					1
				],
				"metallicFactor":0.20454545319080353,
				"roughnessFactor":0.23636364936828613
			}
		},
		{
			"doubleSided":true,
			"emissiveFactor":[
				1,
				1,
				1
			],
			"name":"PinkFlash.003",
			"pbrMetallicRoughness":{
				"metallicFactor":0,
				"roughnessFactor":0.5
			}
		},
		{
			"doubleSided":true,
			"name":"FrontCameraBlack.003",
			"pbrMetallicRoughness":{
				"baseColorFactor":[
					0.01599629409611225,
					0.01599629409611225,
					0.01599629409611225,
					1
				],
				"metallicFactor":0,
				"roughnessFactor":0.5
			}
		},
		{
			"doubleSided":true,
			"name":"FrontSpeaker.003",
			"pbrMetallicRoughness":{
				"baseColorFactor":[
					0.05286065861582756,
					0.05286065861582756,
					0.05286065861582756,
					1
				],
				"metallicFactor":0,
				"roughnessFactor":0.5
			}
		},
		{
			"doubleSided":true,
			"name":"Black.004",
			"pbrMetallicRoughness":{}
		},
		{
			"alphaCutoff":0.5,
			"alphaMode":"MASK",
			"doubleSided":true,
			"name":"Material.002",
			"pbrMetallicRoughness":{
				"baseColorFactor":[
					0.800000011920929,
					0.800000011920929,
					0.800000011920929,
					0.4728682041168213
				],
				"metallicFactor":0,
				"roughnessFactor":0.5
			}
		}
	],
	"meshes":[
		{
			"name":"Circle.045",
			"primitives":[
				{
					"attributes":{
						"POSITION":0,
						"TEXCOORD_0":1,
						"NORMAL":2
					},
					"indices":3,
					"material":0
				},
				{
					"attributes":{
						"POSITION":4,
						"TEXCOORD_0":5,
						"NORMAL":6
					},
					"indices":7,
					"material":1
				},
				{
					"attributes":{
						"POSITION":8,
						"TEXCOORD_0":9,
						"NORMAL":10
					},
					"indices":11,
					"material":2
				},
				{
					"attributes":{
						"POSITION":12,
						"TEXCOORD_0":13,
						"NORMAL":14
					},
					"indices":15,
					"material":3
				},
				{
					"attributes":{
						"POSITION":16,
						"TEXCOORD_0":17,
						"NORMAL":18
					},
					"indices":19,
					"material":4
				},
				{
					"attributes":{
						"POSITION":20,
						"TEXCOORD_0":21,
						"NORMAL":22
					},
					"indices":23,
					"material":5
				},
				{
					"attributes":{
						"POSITION":24,
						"TEXCOORD_0":25,
						"NORMAL":26
					},
					"indices":27,
					"material":6
				},
				{
					"attributes":{
						"POSITION":28,
						"TEXCOORD_0":29,
						"NORMAL":30
					},
					"indices":31,
					"material":7
				},
				{
					"attributes":{
						"POSITION":32,
						"TEXCOORD_0":33,
						"NORMAL":34
					},
					"indices":35,
					"material":8
				},
				{
					"attributes":{
						"POSITION":36,
						"TEXCOORD_0":37,
						"NORMAL":38
					},
					"indices":39,
					"material":9
				},
				{
					"attributes":{
						"POSITION":40,
						"TEXCOORD_0":41,
						"NORMAL":42
					},
					"indices":43,
					"material":10
				},
				{
					"attributes":{
						"POSITION":44,
						"TEXCOORD_0":45,
						"NORMAL":46
					},
					"indices":47,
					"material":11
				},
				{
					"attributes":{
						"POSITION":48,
						"TEXCOORD_0":49,
						"NORMAL":50
					},
					"indices":51,
					"material":12
				},
				{
					"attributes":{
						"POSITION":52,
						"TEXCOORD_0":53,
						"NORMAL":54
					},
					"indices":55,
					"material":13
				}
			]
		},
		{
			"name":"contact",
			"primitives":[
				{
					"attributes":{
						"POSITION":56,
						"TEXCOORD_0":57,
						"NORMAL":58
					},
					"indices":59,
					"material":14
				}
			]
		}
	],
	"textures":[
		{
			"sampler":0,
			"source":0
		}
	],
	"images":[
		{
			"bufferView":4,
			"mimeType":"image/jpeg",
			"name":"bg"
		}
	],
	"accessors":[
		{
			"bufferView":0,
			"componentType":5126,
			"count":341,
			"max":[
				0.9157671332359314,
				1.3805251121520996,
				0.08085706830024719
			],
			"min":[
				-0.584361732006073,
				-1.8383049964904785,
				0.08085706830024719
			],
			"type":"VEC3"
		},
		{
			"bufferView":1,
			"componentType":5126,
			"count":341,
			"type":"VEC2"
		},
		{
			"bufferView":2,
			"componentType":5126,
			"count":341,
			"type":"VEC3"
		},
		{
			"bufferView":3,
			"componentType":5123,
			"count":918,
			"type":"SCALAR"
		},
		{
			"bufferView":5,
			"componentType":5126,
			"count":18950,
			"max":[
				0.9907812476158142,
				1.450862169265747,
				0.06081780791282654
			],
			"min":[
				-0.661058783531189,
				-1.9086415767669678,
				-0.07047691941261292
			],
			"type":"VEC3"
		},
		{
			"bufferView":6,
			"componentType":5126,
			"count":18950,
			"type":"VEC2"
		},
		{
			"bufferView":7,
			"componentType":5126,
			"count":18950,
			"type":"VEC3"
		},
		{
			"bufferView":8,
			"componentType":5123,
			"count":98652,
			"type":"SCALAR"
		},
		{
			"bufferView":9,
			"componentType":5126,
			"count":3375,
			"max":[
				0.9494158029556274,
				1.414923071861267,
				0.08056800067424774
			],
			"min":[
				-0.6181093454360962,
				-1.8727041482925415,
				0.06771943718194962
			],
			"type":"VEC3"
		},
		{
			"bufferView":10,
			"componentType":5126,
			"count":3375,
			"type":"VEC2"
		},
		{
			"bufferView":11,
			"componentType":5126,
			"count":3375,
			"type":"VEC3"
		},
		{
			"bufferView":12,
			"componentType":5123,
			"count":17160,
			"type":"SCALAR"
		},
		{
			"bufferView":13,
			"componentType":5126,
			"count":1056,
			"max":[
				0.9846628308296204,
				1.4085197448730469,
				0.060014545917510986
			],
			"min":[
				-0.6541078090667725,
				-1.8662993907928467,
				-0.07340524345636368
			],
			"type":"VEC3"
		},
		{
			"bufferView":14,
			"componentType":5126,
			"count":1056,
			"type":"VEC2"
		},
		{
			"bufferView":15,
			"componentType":5126,
			"count":1056,
			"type":"VEC3"
		},
		{
			"bufferView":16,
			"componentType":5123,
			"count":3864,
			"type":"SCALAR"
		},
		{
			"bufferView":17,
			"componentType":5126,
			"count":2717,
			"max":[
				0.9354339838027954,
				1.4018137454986572,
				-0.07365479320287704
			],
			"min":[
				-0.6052502393722534,
				-1.859593152999878,
				-0.07843457907438278
			],
			"type":"VEC3"
		},
		{
			"bufferView":18,
			"componentType":5126,
			"count":2717,
			"type":"VEC2"
		},
		{
			"bufferView":19,
			"componentType":5126,
			"count":2717,
			"type":"VEC3"
		},
		{
			"bufferView":20,
			"componentType":5123,
			"count":15114,
			"type":"SCALAR"
		},
		{
			"bufferView":21,
			"componentType":5126,
			"count":1700,
			"max":[
				0.9572508335113525,
				1.423473834991455,
				0.06833947449922562
			],
			"min":[
				-0.6264998912811279,
				-1.881253719329834,
				0.06026735156774521
			],
			"type":"VEC3"
		},
		{
			"bufferView":22,
			"componentType":5126,
			"count":1700,
			"type":"VEC2"
		},
		{
			"bufferView":23,
			"componentType":5126,
			"count":1700,
			"type":"VEC3"
		},
		{
			"bufferView":24,
			"componentType":5123,
			"count":7770,
			"type":"SCALAR"
		},
		{
			"bufferView":25,
			"componentType":5126,
			"count":1664,
			"max":[
				0.7587451934814453,
				1.2343816757202148,
				-0.08546274900436401
			],
			"min":[
				0.6454724073410034,
				0.8277661800384521,
				-0.09365230798721313
			],
			"type":"VEC3"
		},
		{
			"bufferView":26,
			"componentType":5126,
			"count":1664,
			"type":"VEC2"
		},
		{
			"bufferView":27,
			"componentType":5126,
			"count":1664,
			"type":"VEC3"
		},
		{
			"bufferView":28,
			"componentType":5123,
			"count":9216,
			"type":"SCALAR"
		},
		{
			"bufferView":29,
			"componentType":5126,
			"count":484,
			"max":[
				0.7299325466156006,
				1.2056254148483276,
				-0.07018151879310608
			],
			"min":[
				0.6742812395095825,
				0.8565224409103394,
				-0.09554092586040497
			],
			"type":"VEC3"
		},
		{
			"bufferView":30,
			"componentType":5126,
			"count":484,
			"type":"VEC2"
		},
		{
			"bufferView":31,
			"componentType":5126,
			"count":484,
			"type":"VEC3"
		},
		{
			"bufferView":32,
			"componentType":5123,
			"count":2880,
			"type":"SCALAR"
		},
		{
			"bufferView":33,
			"componentType":5126,
			"count":566,
			"max":[
				0.8157280087471008,
				1.3114149570465088,
				-0.04022010415792465
			],
			"min":[
				0.5907991528511047,
				0.7645866870880127,
				-0.0949830710887909
			],
			"type":"VEC3"
		},
		{
			"bufferView":34,
			"componentType":5126,
			"count":566,
			"type":"VEC2"
		},
		{
			"bufferView":35,
			"componentType":5126,
			"count":566,
			"type":"VEC3"
		},
		{
			"bufferView":36,
			"componentType":5123,
			"count":2217,
			"type":"SCALAR"
		},
		{
			"bufferView":37,
			"componentType":5126,
			"count":959,
			"max":[
				0.9892081618309021,
				1.3208332061767578,
				0.02308911457657814
			],
			"min":[
				0.5790859460830688,
				0.2946943938732147,
				-0.09740741550922394
			],
			"type":"VEC3"
		},
		{
			"bufferView":38,
			"componentType":5126,
			"count":959,
			"type":"VEC2"
		},
		{
			"bufferView":39,
			"componentType":5126,
			"count":959,
			"type":"VEC3"
		},
		{
			"bufferView":40,
			"componentType":5123,
			"count":5316,
			"type":"SCALAR"
		},
		{
			"bufferView":41,
			"componentType":5126,
			"count":6,
			"max":[
				0.7762289643287659,
				1.0982428789138794,
				-0.09297755360603333
			],
			"min":[
				0.6345091462135315,
				0.956523060798645,
				-0.09297755360603333
			],
			"type":"VEC3"
		},
		{
			"bufferView":42,
			"componentType":5126,
			"count":6,
			"type":"VEC2"
		},
		{
			"bufferView":43,
			"componentType":5126,
			"count":6,
			"type":"VEC3"
		},
		{
			"bufferView":44,
			"componentType":5123,
			"count":12,
			"type":"SCALAR"
		},
		{
			"bufferView":45,
			"componentType":5126,
			"count":81,
			"max":[
				0.3723376393318176,
				1.3605684041976929,
				0.08008454740047455
			],
			"min":[
				0.2976739704608917,
				1.2859047651290894,
				0.057980895042419434
			],
			"type":"VEC3"
		},
		{
			"bufferView":46,
			"componentType":5126,
			"count":81,
			"type":"VEC2"
		},
		{
			"bufferView":47,
			"componentType":5126,
			"count":81,
			"type":"VEC3"
		},
		{
			"bufferView":48,
			"componentType":5123,
			"count":432,
			"type":"SCALAR"
		},
		{
			"bufferView":49,
			"componentType":5126,
			"count":4,
			"max":[
				0.25923943519592285,
				1.3348146677017212,
				0.07655804604291916
			],
			"min":[
				0.053653866052627563,
				1.3079992532730103,
				0.07655804604291916
			],
			"type":"VEC3"
		},
		{
			"bufferView":50,
			"componentType":5126,
			"count":4,
			"type":"VEC2"
		},
		{
			"bufferView":51,
			"componentType":5126,
			"count":4,
			"type":"VEC3"
		},
		{
			"bufferView":52,
			"componentType":5123,
			"count":6,
			"type":"SCALAR"
		},
		{
			"bufferView":53,
			"componentType":5126,
			"count":1504,
			"max":[
				0.9859040975570679,
				0.027254164218902588,
				0.015917852520942688
			],
			"min":[
				0.9838321208953857,
				-0.2990036606788635,
				-0.015161911025643349
			],
			"type":"VEC3"
		},
		{
			"bufferView":54,
			"componentType":5126,
			"count":1504,
			"type":"VEC2"
		},
		{
			"bufferView":55,
			"componentType":5126,
			"count":1504,
			"type":"VEC3"
		},
		{
			"bufferView":56,
			"componentType":5123,
			"count":2256,
			"type":"SCALAR"
		},
		{
			"bufferView":57,
			"componentType":5126,
			"count":144,
			"max":[
				0.9807851314544678,
				1,
				0.9807849526405334
			],
			"min":[
				-0.9807848334312439,
				-1,
				-0.9807852506637573
			],
			"type":"VEC3"
		},
		{
			"bufferView":58,
			"componentType":5126,
			"count":144,
			"type":"VEC2"
		},
		{
			"bufferView":59,
			"componentType":5126,
			"count":144,
			"type":"VEC3"
		},
		{
			"bufferView":60,
			"componentType":5123,
			"count":192,
			"type":"SCALAR"
		}
	],
	"bufferViews":[
		{
			"buffer":0,
			"byteLength":4092,
			"byteOffset":0,
			"target":34962
		},
		{
			"buffer":0,
			"byteLength":2728,
			"byteOffset":4092,
			"target":34962
		},
		{
			"buffer":0,
			"byteLength":4092,
			"byteOffset":6820,
			"target":34962
		},
		{
			"buffer":0,
			"byteLength":1836,
			"byteOffset":10912,
			"target":34963
		},
		{
			"buffer":0,
			"byteLength":37753,
			"byteOffset":12748
		},
		{
			"buffer":0,
			"byteLength":227400,
			"byteOffset":50504,
			"target":34962
		},
		{
			"buffer":0,
			"byteLength":151600,
			"byteOffset":277904,
			"target":34962
		},
		{
			"buffer":0,
			"byteLength":227400,
			"byteOffset":429504,
			"target":34962
		},
		{
			"buffer":0,
			"byteLength":197304,
			"byteOffset":656904,
			"target":34963
		},
		{
			"buffer":0,
			"byteLength":40500,
			"byteOffset":854208,
			"target":34962
		},
		{
			"buffer":0,
			"byteLength":27000,
			"byteOffset":894708,
			"target":34962
		},
		{
			"buffer":0,
			"byteLength":40500,
			"byteOffset":921708,
			"target":34962
		},
		{
			"buffer":0,
			"byteLength":34320,
			"byteOffset":962208,
			"target":34963
		},
		{
			"buffer":0,
			"byteLength":12672,
			"byteOffset":996528,
			"target":34962
		},
		{
			"buffer":0,
			"byteLength":8448,
			"byteOffset":1009200,
			"target":34962
		},
		{
			"buffer":0,
			"byteLength":12672,
			"byteOffset":1017648,
			"target":34962
		},
		{
			"buffer":0,
			"byteLength":7728,
			"byteOffset":1030320,
			"target":34963
		},
		{
			"buffer":0,
			"byteLength":32604,
			"byteOffset":1038048,
			"target":34962
		},
		{
			"buffer":0,
			"byteLength":21736,
			"byteOffset":1070652,
			"target":34962
		},
		{
			"buffer":0,
			"byteLength":32604,
			"byteOffset":1092388,
			"target":34962
		},
		{
			"buffer":0,
			"byteLength":30228,
			"byteOffset":1124992,
			"target":34963
		},
		{
			"buffer":0,
			"byteLength":20400,
			"byteOffset":1155220,
			"target":34962
		},
		{
			"buffer":0,
			"byteLength":13600,
			"byteOffset":1175620,
			"target":34962
		},
		{
			"buffer":0,
			"byteLength":20400,
			"byteOffset":1189220,
			"target":34962
		},
		{
			"buffer":0,
			"byteLength":15540,
			"byteOffset":1209620,
			"target":34963
		},
		{
			"buffer":0,
			"byteLength":19968,
			"byteOffset":1225160,
			"target":34962
		},
		{
			"buffer":0,
			"byteLength":13312,
			"byteOffset":1245128,
			"target":34962
		},
		{
			"buffer":0,
			"byteLength":19968,
			"byteOffset":1258440,
			"target":34962
		},
		{
			"buffer":0,
			"byteLength":18432,
			"byteOffset":1278408,
			"target":34963
		},
		{
			"buffer":0,
			"byteLength":5808,
			"byteOffset":1296840,
			"target":34962
		},
		{
			"buffer":0,
			"byteLength":3872,
			"byteOffset":1302648,
			"target":34962
		},
		{
			"buffer":0,
			"byteLength":5808,
			"byteOffset":1306520,
			"target":34962
		},
		{
			"buffer":0,
			"byteLength":5760,
			"byteOffset":1312328,
			"target":34963
		},
		{
			"buffer":0,
			"byteLength":6792,
			"byteOffset":1318088,
			"target":34962
		},
		{
			"buffer":0,
			"byteLength":4528,
			"byteOffset":1324880,
			"target":34962
		},
		{
			"buffer":0,
			"byteLength":6792,
			"byteOffset":1329408,
			"target":34962
		},
		{
			"buffer":0,
			"byteLength":4434,
			"byteOffset":1336200,
			"target":34963
		},
		{
			"buffer":0,
			"byteLength":11508,
			"byteOffset":1340636,
			"target":34962
		},
		{
			"buffer":0,
			"byteLength":7672,
			"byteOffset":1352144,
			"target":34962
		},
		{
			"buffer":0,
			"byteLength":11508,
			"byteOffset":1359816,
			"target":34962
		},
		{
			"buffer":0,
			"byteLength":10632,
			"byteOffset":1371324,
			"target":34963
		},
		{
			"buffer":0,
			"byteLength":72,
			"byteOffset":1381956,
			"target":34962
		},
		{
			"buffer":0,
			"byteLength":48,
			"byteOffset":1382028,
			"target":34962
		},
		{
			"buffer":0,
			"byteLength":72,
			"byteOffset":1382076,
			"target":34962
		},
		{
			"buffer":0,
			"byteLength":24,
			"byteOffset":1382148,
			"target":34963
		},
		{
			"buffer":0,
			"byteLength":972,
			"byteOffset":1382172,
			"target":34962
		},
		{
			"buffer":0,
			"byteLength":648,
			"byteOffset":1383144,
			"target":34962
		},
		{
			"buffer":0,
			"byteLength":972,
			"byteOffset":1383792,
			"target":34962
		},
		{
			"buffer":0,
			"byteLength":864,
			"byteOffset":1384764,
			"target":34963
		},
		{
			"buffer":0,
			"byteLength":48,
			"byteOffset":1385628,
			"target":34962
		},
		{
			"buffer":0,
			"byteLength":32,
			"byteOffset":1385676,
			"target":34962
		},
		{
			"buffer":0,
			"byteLength":48,
			"byteOffset":1385708,
			"target":34962
		},
		{
			"buffer":0,
			"byteLength":12,
			"byteOffset":1385756,
			"target":34963
		},
		{
			"buffer":0,
			"byteLength":18048,
			"byteOffset":1385768,
			"target":34962
		},
		{
			"buffer":0,
			"byteLength":12032,
			"byteOffset":1403816,
			"target":34962
		},
		{
			"buffer":0,
			"byteLength":18048,
			"byteOffset":1415848,
			"target":34962
		},
		{
			"buffer":0,
			"byteLength":4512,
			"byteOffset":1433896,
			"target":34963
		},
		{
			"buffer":0,
			"byteLength":1728,
			"byteOffset":1438408,
			"target":34962
		},
		{
			"buffer":0,
			"byteLength":1152,
			"byteOffset":1440136,
			"target":34962
		},
		{
			"buffer":0,
			"byteLength":1728,
			"byteOffset":1441288,
			"target":34962
		},
		{
			"buffer":0,
			"byteLength":384,
			"byteOffset":1443016,
			"target":34963
		}
	],
	"samplers":[
		{
			"magFilter":9729,
			"minFilter":9987
		}
	],
	"buffers":[
		{
			"byteLength":1443400,
			"uri":"data:application/octet-stream;base64,"
		}
	]
}
