{
	"asset":{
		"generator":"Khronos glTF Blender I/O v3.5.30",
		"version":"2.0"
	},
	"extensionsUsed":[
		"KHR_materials_transmission",
		"KHR_materials_specular",
		"KHR_materials_ior"
	],
	"scene":0,
	"scenes":[
		{
			"name":"Scene",
			"nodes":[
				0,
				1,
				2,
				3,
				4,
				5,
				6,
				7
			]
		}
	],
	"nodes":[
		{
			"mesh":0,
			"name":"Cube",
			"scale":[
				0.3999999761581421,
				0.3999999761581421,
				0.3999999761581421
			]
		},
		{
			"mesh":1,
			"name":"Cube.002",
			"scale":[
				0.3999999761581421,
				0.3999999761581421,
				0.3999999761581421
			]
		},
		{
			"mesh":2,
			"name":"Cylinder",
			"rotation":[
				0,
				0.70710688829422,
				-0.7071066498756409,
				5.338507236274381e-08
			],
			"scale":[
				0.22810781002044678,
				0.045882824808359146,
				0.22810781002044678
			],
			"translation":[
				-2.3939945697784424,
				1.426891803741455,
				-3.9799997806549072
			]
		},
		{
			"mesh":3,
			"name":"Cube.001",
			"scale":[
				0.3999999761581421,
				0.3999999761581421,
				0.3999999761581421
			],
			"translation":[
				0.5685723423957825,
				1.2709293365478516,
				-3.802720785140991
			]
		},
		{
			"mesh":4,
			"name":"Plane",
			"rotation":[
				-0.7071068286895752,
				0,
				0,
				0.7071068286895752
			],
			"scale":[
				0.11127465218305588,
				0.11127465218305588,
				0.0689859390258789
			],
			"translation":[
				1.9959256649017334,
				0,
				-3.7423548698425293
			]
		},
		{
			"mesh":5,
			"name":"Plane.001",
			"rotation":[
				-0.7071068286895752,
				0,
				0,
				0.7071068286895752
			],
			"scale":[
				0.11127465218305588,
				0.11127465218305588,
				0.0689859390258789
			],
			"translation":[
				-2.253678560256958,
				0,
				-3.7423548698425293
			]
		},
		{
			"mesh":6,
			"name":"Plane.002",
			"rotation":[
				-0.7071068286895752,
				0,
				0,
				0.7071068286895752
			],
			"scale":[
				0.11127465218305588,
				0.11127465218305588,
				0.0689859390258789
			],
			"translation":[
				-0.05398157238960266,
				0,
				-3.7423548698425293
			]
		},
		{
			"mesh":7,
			"name":"Cube.003",
			"scale":[
				2.361581802368164,
				0.02059256285429001,
				0.18107187747955322
			],
			"translation":[
				-0.05398142337799072,
				0.2782433032989502,
				-3.742354393005371
			]
		}
	],
	"materials":[
		{
			"doubleSided":true,
			"name":"Material.005",
			"pbrMetallicRoughness":{
				"baseColorFactor":[
					0.8000000715255737,
					0.7862524390220642,
					0.6845876574516296,
					1
				],
				"metallicFactor":0
			}
		},
		{
			"doubleSided":true,
			"name":"Material.001",
			"pbrMetallicRoughness":{
				"baseColorFactor":[
					0.17651128768920898,
					0.39054879546165466,
					0.5925777554512024,
					1
				],
				"metallicFactor":0
			}
		},
		{
			"doubleSided":true,
			"name":"Material.002",
			"pbrMetallicRoughness":{
				"baseColorFactor":[
					0.800000011920929,
					0.800000011920929,
					0.800000011920929,
					1
				],
				"metallicFactor":0,
				"roughnessFactor":0.5
			}
		},
		{
			"doubleSided":true,
			"name":"Material.004",
			"pbrMetallicRoughness":{}
		},
		{
			"doubleSided":true,
			"name":"Material.006",
			"pbrMetallicRoughness":{
				"baseColorFactor":[
					0.7662912607192993,
					0.8000000715255737,
					0.7746391296386719,
					1
				],
				"metallicFactor":0
			}
		},
		{
			"doubleSided":true,
			"extensions":{
				"KHR_materials_transmission":{
					"transmissionFactor":0.7638888955116272
				},
				"KHR_materials_specular":{
					"specularColorFactor":[
						0.7638888955116272,
						0.7638888955116272,
						0.7638888955116272
					]
				},
				"KHR_materials_ior":{
					"ior":1.4500000476837158
				}
			},
			"name":"Material.009",
			"pbrMetallicRoughness":{
				"baseColorFactor":[
					0.238642618060112,
					0.238642618060112,
					0.238642618060112,
					1
				],
				"metallicFactor":0
			}
		}
	],
	"meshes":[
		{
			"name":"Cube.001",
			"primitives":[
				{
					"attributes":{
						"POSITION":0,
						"TEXCOORD_0":1,
						"NORMAL":2
					},
					"indices":3,
					"material":0
				}
			]
		},
		{
			"name":"Cube.002",
			"primitives":[
				{
					"attributes":{
						"POSITION":4,
						"TEXCOORD_0":5,
						"NORMAL":6
					},
					"indices":7,
					"material":1
				}
			]
		},
		{
			"name":"Cylinder.003",
			"primitives":[
				{
					"attributes":{
						"POSITION":8,
						"TEXCOORD_0":9,
						"NORMAL":10
					},
					"indices":11,
					"material":2
				},
				{
					"attributes":{
						"POSITION":12,
						"TEXCOORD_0":13,
						"NORMAL":14
					},
					"indices":15,
					"material":3
				}
			]
		},
		{
			"name":"Cube.006",
			"primitives":[
				{
					"attributes":{
						"POSITION":16,
						"TEXCOORD_0":17,
						"NORMAL":18
					},
					"indices":19,
					"material":4
				}
			]
		},
		{
			"name":"Plane.001",
			"primitives":[
				{
					"attributes":{
						"POSITION":20,
						"TEXCOORD_0":21,
						"NORMAL":22
					},
					"indices":23,
					"material":5
				}
			]
		},
		{
			"name":"Plane.002",
			"primitives":[
				{
					"attributes":{
						"POSITION":24,
						"TEXCOORD_0":25,
						"NORMAL":26
					},
					"indices":23,
					"material":5
				}
			]
		},
		{
			"name":"Plane.003",
			"primitives":[
				{
					"attributes":{
						"POSITION":27,
						"TEXCOORD_0":28,
						"NORMAL":29
					},
					"indices":23,
					"material":5
				}
			]
		},
		{
			"name":"Cube",
			"primitives":[
				{
					"attributes":{
						"POSITION":30,
						"TEXCOORD_0":31,
						"NORMAL":32
					},
					"indices":33,
					"material":1
				}
			]
		}
	],
	"accessors":[
		{
			"bufferView":0,
			"componentType":5126,
			"count":37,
			"max":[
				9.949999809265137,
				5.423829078674316,
				9.949999809265137
			],
			"min":[
				-9.949999809265137,
				2.384185791015625e-07,
				-9.949999809265137
			],
			"type":"VEC3"
		},
		{
			"bufferView":1,
			"componentType":5126,
			"count":37,
			"type":"VEC2"
		},
		{
			"bufferView":2,
			"componentType":5126,
			"count":37,
			"type":"VEC3"
		},
		{
			"bufferView":3,
			"componentType":5123,
			"count":81,
			"type":"SCALAR"
		},
		{
			"bufferView":4,
			"componentType":5126,
			"count":28,
			"max":[
				3.593308687210083,
				3.952275276184082,
				-9.949999809265137
			],
			"min":[
				2.6754531860351562,
				2.9948570728302,
				-10.205615043640137
			],
			"type":"VEC3"
		},
		{
			"bufferView":5,
			"componentType":5126,
			"count":28,
			"type":"VEC2"
		},
		{
			"bufferView":6,
			"componentType":5126,
			"count":28,
			"type":"VEC3"
		},
		{
			"bufferView":7,
			"componentType":5123,
			"count":54,
			"type":"SCALAR"
		},
		{
			"bufferView":8,
			"componentType":5126,
			"count":226,
			"max":[
				1.0000009536743164,
				1.52587890625e-05,
				1.0000014305114746
			],
			"min":[
				-0.9999990463256836,
				-1.9999847412109375,
				-0.9999985694885254
			],
			"type":"VEC3"
		},
		{
			"bufferView":9,
			"componentType":5126,
			"count":226,
			"type":"VEC2"
		},
		{
			"bufferView":10,
			"componentType":5126,
			"count":226,
			"type":"VEC3"
		},
		{
			"bufferView":11,
			"componentType":5123,
			"count":948,
			"type":"SCALAR"
		},
		{
			"bufferView":12,
			"componentType":5126,
			"count":28,
			"max":[
				0.45087483525276184,
				-0.43896040320396423,
				0.7032509446144104
			],
			"min":[
				-0.5415980219841003,
				-0.7956861853599548,
				-0.14504556357860565
			],
			"type":"VEC3"
		},
		{
			"bufferView":13,
			"componentType":5126,
			"count":28,
			"type":"VEC2"
		},
		{
			"bufferView":14,
			"componentType":5126,
			"count":28,
			"type":"VEC3"
		},
		{
			"bufferView":15,
			"componentType":5123,
			"count":72,
			"type":"SCALAR"
		},
		{
			"bufferView":16,
			"componentType":5126,
			"count":271,
			"max":[
				6.664294242858887,
				0.9563692808151245,
				0.4432086944580078
			],
			"min":[
				-7.275937080383301,
				-1.0115561485290527,
				-0.44319725036621094
			],
			"type":"VEC3"
		},
		{
			"bufferView":17,
			"componentType":5126,
			"count":271,
			"type":"VEC2"
		},
		{
			"bufferView":18,
			"componentType":5126,
			"count":271,
			"type":"VEC3"
		},
		{
			"bufferView":19,
			"componentType":5123,
			"count":672,
			"type":"SCALAR"
		},
		{
			"bufferView":20,
			"componentType":5126,
			"count":374,
			"max":[
				0.9999999403953552,
				0.8333315253257751,
				4.033332824707031
			],
			"min":[
				-1,
				-0.8333352208137512,
				-2.384185791015625e-07
			],
			"type":"VEC3"
		},
		{
			"bufferView":21,
			"componentType":5126,
			"count":374,
			"type":"VEC2"
		},
		{
			"bufferView":22,
			"componentType":5126,
			"count":374,
			"type":"VEC3"
		},
		{
			"bufferView":23,
			"componentType":5123,
			"count":840,
			"type":"SCALAR"
		},
		{
			"bufferView":24,
			"componentType":5126,
			"count":374,
			"max":[
				0.9999999403953552,
				0.8333315253257751,
				4.033332824707031
			],
			"min":[
				-1,
				-0.8333352208137512,
				-2.384185791015625e-07
			],
			"type":"VEC3"
		},
		{
			"bufferView":25,
			"componentType":5126,
			"count":374,
			"type":"VEC2"
		},
		{
			"bufferView":26,
			"componentType":5126,
			"count":374,
			"type":"VEC3"
		},
		{
			"bufferView":27,
			"componentType":5126,
			"count":374,
			"max":[
				0.9999999403953552,
				0.8333315253257751,
				4.033332824707031
			],
			"min":[
				-1,
				-0.8333352208137512,
				-2.384185791015625e-07
			],
			"type":"VEC3"
		},
		{
			"bufferView":28,
			"componentType":5126,
			"count":374,
			"type":"VEC2"
		},
		{
			"bufferView":29,
			"componentType":5126,
			"count":374,
			"type":"VEC3"
		},
		{
			"bufferView":30,
			"componentType":5126,
			"count":24,
			"max":[
				1,
				2,
				0.9999990463256836
			],
			"min":[
				-1,
				0,
				-1.0000009536743164
			],
			"type":"VEC3"
		},
		{
			"bufferView":31,
			"componentType":5126,
			"count":24,
			"type":"VEC2"
		},
		{
			"bufferView":32,
			"componentType":5126,
			"count":24,
			"type":"VEC3"
		},
		{
			"bufferView":33,
			"componentType":5123,
			"count":36,
			"type":"SCALAR"
		}
	],
	"bufferViews":[
		{
			"buffer":0,
			"byteLength":444,
			"byteOffset":0,
			"target":34962
		},
		{
			"buffer":0,
			"byteLength":296,
			"byteOffset":444,
			"target":34962
		},
		{
			"buffer":0,
			"byteLength":444,
			"byteOffset":740,
			"target":34962
		},
		{
			"buffer":0,
			"byteLength":162,
			"byteOffset":1184,
			"target":34963
		},
		{
			"buffer":0,
			"byteLength":336,
			"byteOffset":1348,
			"target":34962
		},
		{
			"buffer":0,
			"byteLength":224,
			"byteOffset":1684,
			"target":34962
		},
		{
			"buffer":0,
			"byteLength":336,
			"byteOffset":1908,
			"target":34962
		},
		{
			"buffer":0,
			"byteLength":108,
			"byteOffset":2244,
			"target":34963
		},
		{
			"buffer":0,
			"byteLength":2712,
			"byteOffset":2352,
			"target":34962
		},
		{
			"buffer":0,
			"byteLength":1808,
			"byteOffset":5064,
			"target":34962
		},
		{
			"buffer":0,
			"byteLength":2712,
			"byteOffset":6872,
			"target":34962
		},
		{
			"buffer":0,
			"byteLength":1896,
			"byteOffset":9584,
			"target":34963
		},
		{
			"buffer":0,
			"byteLength":336,
			"byteOffset":11480,
			"target":34962
		},
		{
			"buffer":0,
			"byteLength":224,
			"byteOffset":11816,
			"target":34962
		},
		{
			"buffer":0,
			"byteLength":336,
			"byteOffset":12040,
			"target":34962
		},
		{
			"buffer":0,
			"byteLength":144,
			"byteOffset":12376,
			"target":34963
		},
		{
			"buffer":0,
			"byteLength":3252,
			"byteOffset":12520,
			"target":34962
		},
		{
			"buffer":0,
			"byteLength":2168,
			"byteOffset":15772,
			"target":34962
		},
		{
			"buffer":0,
			"byteLength":3252,
			"byteOffset":17940,
			"target":34962
		},
		{
			"buffer":0,
			"byteLength":1344,
			"byteOffset":21192,
			"target":34963
		},
		{
			"buffer":0,
			"byteLength":4488,
			"byteOffset":22536,
			"target":34962
		},
		{
			"buffer":0,
			"byteLength":2992,
			"byteOffset":27024,
			"target":34962
		},
		{
			"buffer":0,
			"byteLength":4488,
			"byteOffset":30016,
			"target":34962
		},
		{
			"buffer":0,
			"byteLength":1680,
			"byteOffset":34504,
			"target":34963
		},
		{
			"buffer":0,
			"byteLength":4488,
			"byteOffset":36184,
			"target":34962
		},
		{
			"buffer":0,
			"byteLength":2992,
			"byteOffset":40672,
			"target":34962
		},
		{
			"buffer":0,
			"byteLength":4488,
			"byteOffset":43664,
			"target":34962
		},
		{
			"buffer":0,
			"byteLength":4488,
			"byteOffset":48152,
			"target":34962
		},
		{
			"buffer":0,
			"byteLength":2992,
			"byteOffset":52640,
			"target":34962
		},
		{
			"buffer":0,
			"byteLength":4488,
			"byteOffset":55632,
			"target":34962
		},
		{
			"buffer":0,
			"byteLength":288,
			"byteOffset":60120,
			"target":34962
		},
		{
			"buffer":0,
			"byteLength":192,
			"byteOffset":60408,
			"target":34962
		},
		{
			"buffer":0,
			"byteLength":288,
			"byteOffset":60600,
			"target":34962
		},
		{
			"buffer":0,
			"byteLength":72,
			"byteOffset":60888,
			"target":34963
		}
	],
	"buffers":[
		{
			"byteLength":60960,
			"uri":"data:application/octet-stream;base64,"
		}
	]
}
