{
	"asset":{
		"generator":"Khronos glTF Blender I/O v3.5.30",
		"version":"2.0"
	},
	"scene":0,
	"scenes":[
		{
			"name":"Scene",
			"nodes":[
				0,
				1,
				2,
				3,
				4,
				5,
				6,
				7,
				8,
				9,
				10,
				11,
				12,
				13
			]
		}
	],
	"nodes":[
		{
			"mesh":0,
			"name":"Cylinder",
			"rotation":[
				-0.7071068286895752,
				0,
				0,
				0.7071068286895752
			],
			"scale":[
				4.901614665985107,
				4.901614665985107,
				4.901614665985107
			],
			"translation":[
				0,
				56,
				-1.8427528142929077
			]
		},
		{
			"mesh":1,
			"name":"Cylinder.001",
			"rotation":[
				-0.7071068286895752,
				0,
				0,
				0.7071068286895752
			],
			"scale":[
				4.901614665985107,
				4.901614665985107,
				4.901614665985107
			],
			"translation":[
				0,
				56,
				-1.8427528142929077
			]
		},
		{
			"mesh":2,
			"name":"Cylinder.006",
			"rotation":[
				-0.10590627789497375,
				0,
				0,
				0.9943761229515076
			],
			"scale":[
				4.901614665985107,
				4.901614665985107,
				4.901614665985107
			],
			"translation":[
				0,
				56,
				-1.8427528142929077
			]
		},
		{
			"mesh":3,
			"name":"Torus.001",
			"rotation":[
				0.7071068286895752,
				0,
				0,
				0.7071068286895752
			],
			"scale":[
				-5.900000095367432,
				-7.643078327178955,
				-5.900000095367432
			],
			"translation":[
				0,
				56,
				-1.8427528142929077
			]
		},
		{
			"mesh":4,
			"name":"Cylinder.002",
			"rotation":[
				0,
				0,
				-0.7071066498756409,
				0.70710688829422
			],
			"translation":[
				-0.19171378016471863,
				56,
				0.15724718570709229
			]
		},
		{
			"mesh":5,
			"name":"Cylinder.003",
			"scale":[
				0.8044242858886719,
				1,
				1
			],
			"translation":[
				-0.03171376883983612,
				55,
				0.15724718570709229
			]
		},
		{
			"mesh":6,
			"name":"Cylinder.004",
			"rotation":[
				-0.7071068286895752,
				0,
				0,
				0.7071068286895752
			],
			"translation":[
				5.423371315002441,
				56,
				-0.21060621738433838
			]
		},
		{
			"mesh":7,
			"name":"Cylinder.005",
			"rotation":[
				-0.7071068286895752,
				0,
				0,
				0.7071068286895752
			],
			"translation":[
				-5.829156875610352,
				56,
				-0.21060621738433838
			]
		},
		{
			"mesh":8,
			"name":"Sphere",
			"scale":[
				1.0153498649597168,
				1.2622069120407104,
				1.2622069120407104
			],
			"translation":[
				-0.035274527966976166,
				56,
				0.15724718570709229
			]
		},
		{
			"mesh":9,
			"name":"Sphere.001",
			"translation":[
				-5.806799411773682,
				56,
				0.1572479009628296
			]
		},
		{
			"mesh":10,
			"name":"Sphere.002",
			"translation":[
				5.423371315002441,
				56,
				0.15724647045135498
			]
		},
		{
			"mesh":11,
			"name":"Cylinder.007",
			"rotation":[
				-0.282571017742157,
				0.10284756869077682,
				-0.8962007164955139,
				0.3261905312538147
			],
			"translation":[
				-0.03171838819980621,
				20.199840545654297,
				0.15724718570709229
			]
		},
		{
			"mesh":12,
			"name":"Cylinder.008",
			"rotation":[
				0.6644630432128906,
				-0.24184481799602509,
				-0.6644630432128906,
				0.24184495210647583
			],
			"translation":[
				-0.03171838819980621,
				20.199840545654297,
				0.15724718570709229
			]
		},
		{
			"mesh":13,
			"name":"Cylinder.009",
			"rotation":[
				-0.8962007164955139,
				0.3261905312538147,
				-0.2825711667537689,
				0.10284747183322906
			],
			"translation":[
				-0.03171838819980621,
				20.199840545654297,
				0.15724718570709229
			]
		}
	],
	"materials":[
		{
			"doubleSided":true,
			"name":"Material.002",
			"pbrMetallicRoughness":{}
		},
		{
			"doubleSided":true,
			"name":"Material.001",
			"pbrMetallicRoughness":{}
		},
		{
			"doubleSided":true,
			"name":"Material.003",
			"pbrMetallicRoughness":{
				"baseColorFactor":[
					0.09850405156612396,
					0.09011858701705933,
					0.09264929592609406,
					1
				],
				"metallicFactor":0,
				"roughnessFactor":0
			}
		},
		{
			"doubleSided":true,
			"name":"Material.004",
			"pbrMetallicRoughness":{}
		},
		{
			"doubleSided":true,
			"name":"Material.005",
			"pbrMetallicRoughness":{}
		}
	],
	"meshes":[
		{
			"name":"Cylinder",
			"primitives":[
				{
					"attributes":{
						"POSITION":0,
						"TEXCOORD_0":1,
						"NORMAL":2
					},
					"indices":3,
					"material":0
				}
			]
		},
		{
			"name":"Cylinder.001",
			"primitives":[
				{
					"attributes":{
						"POSITION":4,
						"TEXCOORD_0":5,
						"NORMAL":6
					},
					"indices":7,
					"material":1
				}
			]
		},
		{
			"name":"Cylinder.006",
			"primitives":[
				{
					"attributes":{
						"POSITION":8,
						"TEXCOORD_0":9,
						"NORMAL":10
					},
					"indices":11,
					"material":0
				}
			]
		},
		{
			"name":"Torus.001",
			"primitives":[
				{
					"attributes":{
						"POSITION":12,
						"TEXCOORD_0":13,
						"NORMAL":14
					},
					"indices":15,
					"material":2
				}
			]
		},
		{
			"name":"Cylinder.010",
			"primitives":[
				{
					"attributes":{
						"POSITION":16,
						"TEXCOORD_0":17,
						"NORMAL":18
					},
					"indices":19,
					"material":0
				}
			]
		},
		{
			"name":"Cylinder.008",
			"primitives":[
				{
					"attributes":{
						"POSITION":20,
						"TEXCOORD_0":21,
						"NORMAL":22
					},
					"indices":23,
					"material":0
				}
			]
		},
		{
			"name":"Cylinder.011",
			"primitives":[
				{
					"attributes":{
						"POSITION":24,
						"TEXCOORD_0":25,
						"NORMAL":26
					},
					"indices":27,
					"material":0
				}
			]
		},
		{
			"name":"Cylinder.012",
			"primitives":[
				{
					"attributes":{
						"POSITION":28,
						"TEXCOORD_0":29,
						"NORMAL":30
					},
					"indices":27,
					"material":0
				}
			]
		},
		{
			"name":"Sphere.001",
			"primitives":[
				{
					"attributes":{
						"POSITION":31,
						"TEXCOORD_0":32,
						"NORMAL":33
					},
					"indices":34,
					"material":0
				}
			]
		},
		{
			"name":"Sphere.002",
			"primitives":[
				{
					"attributes":{
						"POSITION":35,
						"TEXCOORD_0":36,
						"NORMAL":37
					},
					"indices":38,
					"material":0
				}
			]
		},
		{
			"name":"Sphere.003",
			"primitives":[
				{
					"attributes":{
						"POSITION":39,
						"TEXCOORD_0":40,
						"NORMAL":41
					},
					"indices":38,
					"material":0
				}
			]
		},
		{
			"name":"Cylinder.013",
			"primitives":[
				{
					"attributes":{
						"POSITION":42,
						"TEXCOORD_0":43,
						"NORMAL":44
					},
					"indices":45,
					"material":0
				}
			]
		},
		{
			"name":"Cylinder.004",
			"primitives":[
				{
					"attributes":{
						"POSITION":46,
						"TEXCOORD_0":47,
						"NORMAL":48
					},
					"indices":45,
					"material":3
				}
			]
		},
		{
			"name":"Cylinder.005",
			"primitives":[
				{
					"attributes":{
						"POSITION":49,
						"TEXCOORD_0":50,
						"NORMAL":51
					},
					"indices":45,
					"material":4
				}
			]
		}
	],
	"accessors":[
		{
			"bufferView":0,
			"componentType":5126,
			"count":774,
			"max":[
				1.1868679523468018,
				3.0950610637664795,
				1.2118061780929565
			],
			"min":[
				-1.2638567686080933,
				-0.004142880439758301,
				-1.2545933723449707
			],
			"type":"VEC3"
		},
		{
			"bufferView":1,
			"componentType":5126,
			"count":774,
			"type":"VEC2"
		},
		{
			"bufferView":2,
			"componentType":5126,
			"count":774,
			"type":"VEC3"
		},
		{
			"bufferView":3,
			"componentType":5123,
			"count":3246,
			"type":"SCALAR"
		},
		{
			"bufferView":4,
			"componentType":5126,
			"count":736,
			"max":[
				0.8872054219245911,
				1.9981114864349365,
				0.903632402420044
			],
			"min":[
				-0.9605531692504883,
				1.3807950019836426,
				-0.9441258907318115
			],
			"type":"VEC3"
		},
		{
			"bufferView":5,
			"componentType":5126,
			"count":736,
			"type":"VEC2"
		},
		{
			"bufferView":6,
			"componentType":5126,
			"count":736,
			"type":"VEC3"
		},
		{
			"bufferView":7,
			"componentType":5123,
			"count":1056,
			"type":"SCALAR"
		},
		{
			"bufferView":8,
			"componentType":5126,
			"count":84,
			"max":[
				1.5565563440322876,
				2.268582820892334,
				-2.7951955795288086
			],
			"min":[
				-1.648154854774475,
				-0.5603053569793701,
				-4.318838596343994
			],
			"type":"VEC3"
		},
		{
			"bufferView":9,
			"componentType":5126,
			"count":84,
			"type":"VEC2"
		},
		{
			"bufferView":10,
			"componentType":5126,
			"count":84,
			"type":"VEC3"
		},
		{
			"bufferView":11,
			"componentType":5123,
			"count":228,
			"type":"SCALAR"
		},
		{
			"bufferView":12,
			"componentType":5126,
			"count":1356,
			"max":[
				1.0614330768585205,
				1.9677491188049316,
				1.0141445398330688
			],
			"min":[
				-1.0004971027374268,
				0.7194108366966248,
				-1.0477856397628784
			],
			"type":"VEC3"
		},
		{
			"bufferView":13,
			"componentType":5126,
			"count":1356,
			"type":"VEC2"
		},
		{
			"bufferView":14,
			"componentType":5126,
			"count":1356,
			"type":"VEC3"
		},
		{
			"bufferView":15,
			"componentType":5123,
			"count":7104,
			"type":"SCALAR"
		},
		{
			"bufferView":16,
			"componentType":5126,
			"count":192,
			"max":[
				0.3584904074668884,
				5.615088939666748,
				0.3584899306297302
			],
			"min":[
				-0.35849112272262573,
				-5.615088939666748,
				-0.35848987102508545
			],
			"type":"VEC3"
		},
		{
			"bufferView":17,
			"componentType":5126,
			"count":192,
			"type":"VEC2"
		},
		{
			"bufferView":18,
			"componentType":5126,
			"count":192,
			"type":"VEC3"
		},
		{
			"bufferView":19,
			"componentType":5123,
			"count":372,
			"type":"SCALAR"
		},
		{
			"bufferView":20,
			"componentType":5126,
			"count":768,
			"max":[
				1,
				1,
				1
			],
			"min":[
				-1.0000057220458984,
				-49,
				-1
			],
			"type":"VEC3"
		},
		{
			"bufferView":21,
			"componentType":5126,
			"count":768,
			"type":"VEC2"
		},
		{
			"bufferView":22,
			"componentType":5126,
			"count":768,
			"type":"VEC3"
		},
		{
			"bufferView":23,
			"componentType":5123,
			"count":2100,
			"type":"SCALAR"
		},
		{
			"bufferView":24,
			"componentType":5126,
			"count":256,
			"max":[
				0.31384819746017456,
				6.753620147705078,
				0.31384819746017456
			],
			"min":[
				-0.31384819746017456,
				-0.3536202311515808,
				-0.31384819746017456
			],
			"type":"VEC3"
		},
		{
			"bufferView":25,
			"componentType":5126,
			"count":256,
			"type":"VEC2"
		},
		{
			"bufferView":26,
			"componentType":5126,
			"count":256,
			"type":"VEC3"
		},
		{
			"bufferView":27,
			"componentType":5123,
			"count":564,
			"type":"SCALAR"
		},
		{
			"bufferView":28,
			"componentType":5126,
			"count":256,
			"max":[
				0.31384819746017456,
				6.753620147705078,
				0.31384819746017456
			],
			"min":[
				-0.31384819746017456,
				-0.3536202311515808,
				-0.31384819746017456
			],
			"type":"VEC3"
		},
		{
			"bufferView":29,
			"componentType":5126,
			"count":256,
			"type":"VEC2"
		},
		{
			"bufferView":30,
			"componentType":5126,
			"count":256,
			"type":"VEC3"
		},
		{
			"bufferView":31,
			"componentType":5126,
			"count":1984,
			"max":[
				0.9999997019767761,
				1,
				0.9999993443489075
			],
			"min":[
				-0.9999990463256836,
				-1,
				-1
			],
			"type":"VEC3"
		},
		{
			"bufferView":32,
			"componentType":5126,
			"count":1984,
			"type":"VEC2"
		},
		{
			"bufferView":33,
			"componentType":5126,
			"count":1984,
			"type":"VEC3"
		},
		{
			"bufferView":34,
			"componentType":5123,
			"count":2880,
			"type":"SCALAR"
		},
		{
			"bufferView":35,
			"componentType":5126,
			"count":1984,
			"max":[
				0.3999972939491272,
				0.3999999761581421,
				0.399999737739563
			],
			"min":[
				-0.40000224113464355,
				-0.3999999761581421,
				-0.3999999761581421
			],
			"type":"VEC3"
		},
		{
			"bufferView":36,
			"componentType":5126,
			"count":1984,
			"type":"VEC2"
		},
		{
			"bufferView":37,
			"componentType":5126,
			"count":1984,
			"type":"VEC3"
		},
		{
			"bufferView":38,
			"componentType":5123,
			"count":2880,
			"type":"SCALAR"
		},
		{
			"bufferView":39,
			"componentType":5126,
			"count":1984,
			"max":[
				0.3999972939491272,
				0.3999999761581421,
				0.399999737739563
			],
			"min":[
				-0.40000224113464355,
				-0.3999999761581421,
				-0.3999999761581421
			],
			"type":"VEC3"
		},
		{
			"bufferView":40,
			"componentType":5126,
			"count":1984,
			"type":"VEC2"
		},
		{
			"bufferView":41,
			"componentType":5126,
			"count":1984,
			"type":"VEC3"
		},
		{
			"bufferView":42,
			"componentType":5126,
			"count":740,
			"max":[
				1.0000087022781372,
				26.385324478149414,
				1
			],
			"min":[
				-0.9999982714653015,
				0,
				-1
			],
			"type":"VEC3"
		},
		{
			"bufferView":43,
			"componentType":5126,
			"count":740,
			"type":"VEC2"
		},
		{
			"bufferView":44,
			"componentType":5126,
			"count":740,
			"type":"VEC3"
		},
		{
			"bufferView":45,
			"componentType":5123,
			"count":1434,
			"type":"SCALAR"
		},
		{
			"bufferView":46,
			"componentType":5126,
			"count":740,
			"max":[
				1.0000087022781372,
				26.385324478149414,
				1
			],
			"min":[
				-0.9999982714653015,
				0,
				-1
			],
			"type":"VEC3"
		},
		{
			"bufferView":47,
			"componentType":5126,
			"count":740,
			"type":"VEC2"
		},
		{
			"bufferView":48,
			"componentType":5126,
			"count":740,
			"type":"VEC3"
		},
		{
			"bufferView":49,
			"componentType":5126,
			"count":740,
			"max":[
				1.0000087022781372,
				26.385324478149414,
				1
			],
			"min":[
				-0.9999982714653015,
				0,
				-1
			],
			"type":"VEC3"
		},
		{
			"bufferView":50,
			"componentType":5126,
			"count":740,
			"type":"VEC2"
		},
		{
			"bufferView":51,
			"componentType":5126,
			"count":740,
			"type":"VEC3"
		}
	],
	"bufferViews":[
		{
			"buffer":0,
			"byteLength":9288,
			"byteOffset":0,
			"target":34962
		},
		{
			"buffer":0,
			"byteLength":6192,
			"byteOffset":9288,
			"target":34962
		},
		{
			"buffer":0,
			"byteLength":9288,
			"byteOffset":15480,
			"target":34962
		},
		{
			"buffer":0,
			"byteLength":6492,
			"byteOffset":24768,
			"target":34963
		},
		{
			"buffer":0,
			"byteLength":8832,
			"byteOffset":31260,
			"target":34962
		},
		{
			"buffer":0,
			"byteLength":5888,
			"byteOffset":40092,
			"target":34962
		},
		{
			"buffer":0,
			"byteLength":8832,
			"byteOffset":45980,
			"target":34962
		},
		{
			"buffer":0,
			"byteLength":2112,
			"byteOffset":54812,
			"target":34963
		},
		{
			"buffer":0,
			"byteLength":1008,
			"byteOffset":56924,
			"target":34962
		},
		{
			"buffer":0,
			"byteLength":672,
			"byteOffset":57932,
			"target":34962
		},
		{
			"buffer":0,
			"byteLength":1008,
			"byteOffset":58604,
			"target":34962
		},
		{
			"buffer":0,
			"byteLength":456,
			"byteOffset":59612,
			"target":34963
		},
		{
			"buffer":0,
			"byteLength":16272,
			"byteOffset":60068,
			"target":34962
		},
		{
			"buffer":0,
			"byteLength":10848,
			"byteOffset":76340,
			"target":34962
		},
		{
			"buffer":0,
			"byteLength":16272,
			"byteOffset":87188,
			"target":34962
		},
		{
			"buffer":0,
			"byteLength":14208,
			"byteOffset":103460,
			"target":34963
		},
		{
			"buffer":0,
			"byteLength":2304,
			"byteOffset":117668,
			"target":34962
		},
		{
			"buffer":0,
			"byteLength":1536,
			"byteOffset":119972,
			"target":34962
		},
		{
			"buffer":0,
			"byteLength":2304,
			"byteOffset":121508,
			"target":34962
		},
		{
			"buffer":0,
			"byteLength":744,
			"byteOffset":123812,
			"target":34963
		},
		{
			"buffer":0,
			"byteLength":9216,
			"byteOffset":124556,
			"target":34962
		},
		{
			"buffer":0,
			"byteLength":6144,
			"byteOffset":133772,
			"target":34962
		},
		{
			"buffer":0,
			"byteLength":9216,
			"byteOffset":139916,
			"target":34962
		},
		{
			"buffer":0,
			"byteLength":4200,
			"byteOffset":149132,
			"target":34963
		},
		{
			"buffer":0,
			"byteLength":3072,
			"byteOffset":153332,
			"target":34962
		},
		{
			"buffer":0,
			"byteLength":2048,
			"byteOffset":156404,
			"target":34962
		},
		{
			"buffer":0,
			"byteLength":3072,
			"byteOffset":158452,
			"target":34962
		},
		{
			"buffer":0,
			"byteLength":1128,
			"byteOffset":161524,
			"target":34963
		},
		{
			"buffer":0,
			"byteLength":3072,
			"byteOffset":162652,
			"target":34962
		},
		{
			"buffer":0,
			"byteLength":2048,
			"byteOffset":165724,
			"target":34962
		},
		{
			"buffer":0,
			"byteLength":3072,
			"byteOffset":167772,
			"target":34962
		},
		{
			"buffer":0,
			"byteLength":23808,
			"byteOffset":170844,
			"target":34962
		},
		{
			"buffer":0,
			"byteLength":15872,
			"byteOffset":194652,
			"target":34962
		},
		{
			"buffer":0,
			"byteLength":23808,
			"byteOffset":210524,
			"target":34962
		},
		{
			"buffer":0,
			"byteLength":5760,
			"byteOffset":234332,
			"target":34963
		},
		{
			"buffer":0,
			"byteLength":23808,
			"byteOffset":240092,
			"target":34962
		},
		{
			"buffer":0,
			"byteLength":15872,
			"byteOffset":263900,
			"target":34962
		},
		{
			"buffer":0,
			"byteLength":23808,
			"byteOffset":279772,
			"target":34962
		},
		{
			"buffer":0,
			"byteLength":5760,
			"byteOffset":303580,
			"target":34963
		},
		{
			"buffer":0,
			"byteLength":23808,
			"byteOffset":309340,
			"target":34962
		},
		{
			"buffer":0,
			"byteLength":15872,
			"byteOffset":333148,
			"target":34962
		},
		{
			"buffer":0,
			"byteLength":23808,
			"byteOffset":349020,
			"target":34962
		},
		{
			"buffer":0,
			"byteLength":8880,
			"byteOffset":372828,
			"target":34962
		},
		{
			"buffer":0,
			"byteLength":5920,
			"byteOffset":381708,
			"target":34962
		},
		{
			"buffer":0,
			"byteLength":8880,
			"byteOffset":387628,
			"target":34962
		},
		{
			"buffer":0,
			"byteLength":2868,
			"byteOffset":396508,
			"target":34963
		},
		{
			"buffer":0,
			"byteLength":8880,
			"byteOffset":399376,
			"target":34962
		},
		{
			"buffer":0,
			"byteLength":5920,
			"byteOffset":408256,
			"target":34962
		},
		{
			"buffer":0,
			"byteLength":8880,
			"byteOffset":414176,
			"target":34962
		},
		{
			"buffer":0,
			"byteLength":8880,
			"byteOffset":423056,
			"target":34962
		},
		{
			"buffer":0,
			"byteLength":5920,
			"byteOffset":431936,
			"target":34962
		},
		{
			"buffer":0,
			"byteLength":8880,
			"byteOffset":437856,
			"target":34962
		}
	],
	"buffers":[
		{
			"byteLength":446736,
			"uri":"data:application/octet-stream;base64,"
		}
	]
}
