{
	"asset":{
		"generator":"Khronos glTF Blender I/O v3.5.30",
		"version":"2.0"
	},
	"extensionsUsed":[
		"KHR_materials_specular",
		"KHR_materials_ior"
	],
	"scene":0,
	"scenes":[
		{
			"name":"Scene",
			"nodes":[
				1
			]
		}
	],
	"nodes":[
		{
			"mesh":0,
			"name":"video.001",
			"rotation":[
				0,
				-1,
				0,
				7.549790836947068e-08
			],
			"scale":[
				-0.62469881772995,
				-0.62469881772995,
				-0.6724173426628113
			],
			"translation":[
				0,
				0.08158823847770691,
				0
			]
		},
		{
			"children":[
				0
			],
			"mesh":1,
			"name":"video",
			"scale":[
				2.4513351917266846,
				2.825272560119629,
				2.4513351917266846
			],
			"translation":[
				0,
				1.2000000476837158,
				0
			]
		}
	],
	"materials":[
		{
			"doubleSided":true,
			"extensions":{
				"KHR_materials_specular":{
					"specularColorFactor":[
						0.28493056059784516,
						0.28493056059784516,
						0.28493056059784516
					]
				},
				"KHR_materials_ior":{
					"ior":1.4500000476837158
				}
			},
			"name":"Material.009",
			"pbrMetallicRoughness":{
				"baseColorFactor":[
					0.003496916266158223,
					0.06997636705636978,
					0.005273624788969755,
					1
				],
				"metallicFactor":0,
				"roughnessFactor":0.09302325546741486
			}
		},
		{
			"doubleSided":true,
			"extensions":{
				"KHR_materials_specular":{
					"specularColorFactor":[
						0,
						0,
						0
					]
				},
				"KHR_materials_ior":{
					"ior":1.4500000476837158
				}
			},
			"name":"Material.002",
			"pbrMetallicRoughness":{
				"baseColorFactor":[
					0.1130729541182518,
					0.13312874734401703,
					0.19017502665519714,
					1
				],
				"metallicFactor":0
			}
		},
		{
			"doubleSided":true,
			"name":"Material.008",
			"pbrMetallicRoughness":{
				"baseColorFactor":[
					0.12173449248075485,
					0.14731018245220184,
					0.10539430379867554,
					1
				],
				"metallicFactor":0,
				"roughnessFactor":0.5
			}
		},
		{
			"alphaCutoff":0.5,
			"alphaMode":"MASK",
			"doubleSided":true,
			"name":"Material.010",
			"pbrMetallicRoughness":{
				"baseColorFactor":[
					0.800000011920929,
					0.800000011920929,
					0.800000011920929,
					0.42635661363601685
				],
				"metallicFactor":0,
				"roughnessFactor":0.5
			}
		}
	],
	"meshes":[
		{
			"name":"Cube.002",
			"primitives":[
				{
					"attributes":{
						"POSITION":0,
						"TEXCOORD_0":1,
						"NORMAL":2
					},
					"indices":3,
					"material":0
				},
				{
					"attributes":{
						"POSITION":4,
						"TEXCOORD_0":5,
						"NORMAL":6
					},
					"indices":7,
					"material":1
				},
				{
					"attributes":{
						"POSITION":8,
						"TEXCOORD_0":9,
						"NORMAL":10
					},
					"indices":11,
					"material":2
				}
			]
		},
		{
			"name":"Sphere",
			"primitives":[
				{
					"attributes":{
						"POSITION":12,
						"TEXCOORD_0":13,
						"NORMAL":14
					},
					"indices":15,
					"material":3
				}
			]
		}
	],
	"accessors":[
		{
			"bufferView":0,
			"componentType":5126,
			"count":4,
			"max":[
				0.8648260831832886,
				0.37635794281959534,
				0.669849693775177
			],
			"min":[
				-0.8648260831832886,
				-0.6176626682281494,
				0.6473860144615173
			],
			"type":"VEC3"
		},
		{
			"bufferView":1,
			"componentType":5126,
			"count":4,
			"type":"VEC2"
		},
		{
			"bufferView":2,
			"componentType":5126,
			"count":4,
			"type":"VEC3"
		},
		{
			"bufferView":3,
			"componentType":5123,
			"count":6,
			"type":"SCALAR"
		},
		{
			"bufferView":4,
			"componentType":5126,
			"count":521,
			"max":[
				1,
				1,
				0.7860567569732666
			],
			"min":[
				-1,
				-0.7834973931312561,
				-0.9874256253242493
			],
			"type":"VEC3"
		},
		{
			"bufferView":5,
			"componentType":5126,
			"count":521,
			"type":"VEC2"
		},
		{
			"bufferView":6,
			"componentType":5126,
			"count":521,
			"type":"VEC3"
		},
		{
			"bufferView":7,
			"componentType":5123,
			"count":2493,
			"type":"SCALAR"
		},
		{
			"bufferView":8,
			"componentType":5126,
			"count":306,
			"max":[
				-0.65625,
				0.7205082774162292,
				0.7782344818115234
			],
			"min":[
				-0.90625,
				0.6629073619842529,
				0.7548062801361084
			],
			"type":"VEC3"
		},
		{
			"bufferView":9,
			"componentType":5126,
			"count":306,
			"type":"VEC2"
		},
		{
			"bufferView":10,
			"componentType":5126,
			"count":306,
			"type":"VEC3"
		},
		{
			"bufferView":11,
			"componentType":5123,
			"count":1440,
			"type":"SCALAR"
		},
		{
			"bufferView":12,
			"componentType":5126,
			"count":1984,
			"max":[
				0.9999997019767761,
				1,
				0.9999993443489075
			],
			"min":[
				-0.9999990463256836,
				-1,
				-1
			],
			"type":"VEC3"
		},
		{
			"bufferView":13,
			"componentType":5126,
			"count":1984,
			"type":"VEC2"
		},
		{
			"bufferView":14,
			"componentType":5126,
			"count":1984,
			"type":"VEC3"
		},
		{
			"bufferView":15,
			"componentType":5123,
			"count":2880,
			"type":"SCALAR"
		}
	],
	"bufferViews":[
		{
			"buffer":0,
			"byteLength":48,
			"byteOffset":0,
			"target":34962
		},
		{
			"buffer":0,
			"byteLength":32,
			"byteOffset":48,
			"target":34962
		},
		{
			"buffer":0,
			"byteLength":48,
			"byteOffset":80,
			"target":34962
		},
		{
			"buffer":0,
			"byteLength":12,
			"byteOffset":128,
			"target":34963
		},
		{
			"buffer":0,
			"byteLength":6252,
			"byteOffset":140,
			"target":34962
		},
		{
			"buffer":0,
			"byteLength":4168,
			"byteOffset":6392,
			"target":34962
		},
		{
			"buffer":0,
			"byteLength":6252,
			"byteOffset":10560,
			"target":34962
		},
		{
			"buffer":0,
			"byteLength":4986,
			"byteOffset":16812,
			"target":34963
		},
		{
			"buffer":0,
			"byteLength":3672,
			"byteOffset":21800,
			"target":34962
		},
		{
			"buffer":0,
			"byteLength":2448,
			"byteOffset":25472,
			"target":34962
		},
		{
			"buffer":0,
			"byteLength":3672,
			"byteOffset":27920,
			"target":34962
		},
		{
			"buffer":0,
			"byteLength":2880,
			"byteOffset":31592,
			"target":34963
		},
		{
			"buffer":0,
			"byteLength":23808,
			"byteOffset":34472,
			"target":34962
		},
		{
			"buffer":0,
			"byteLength":15872,
			"byteOffset":58280,
			"target":34962
		},
		{
			"buffer":0,
			"byteLength":23808,
			"byteOffset":74152,
			"target":34962
		},
		{
			"buffer":0,
			"byteLength":5760,
			"byteOffset":97960,
			"target":34963
		}
	],
	"buffers":[
		{
			"byteLength":103720,
			"uri":"data:application/octet-stream;base64,"
		}
	]
}
